<svg xmlns="http://www.w3.org/2000/svg" viewBox="80 104 872 630" role="img" aria-labelledby="codeforge-symbol-title">
<title id="codeforge-symbol-title">CodeForge symbol</title>
<g>
<path fill="#2B2D31" d="M580.983948,528.067322 
	C588.325806,520.083618 595.166931,512.107605 603.242798,505.356323 
	C606.699768,502.466370 607.272156,500.343262 603.393311,496.754852 
	C588.689575,483.152008 575.030518,468.537872 565.397644,450.755157 
	C555.565186,432.604218 547.812378,413.565521 541.843506,393.775818 
	C539.687439,386.627228 537.971008,379.396362 536.282349,372.146423 
	C534.406616,364.093506 535.579834,362.680878 543.703552,362.681183 
	C564.367615,362.681946 585.032898,362.777832 605.694763,362.559814 
	C610.735474,362.506592 612.503357,364.182373 613.190857,369.293518 
	C616.160034,391.368225 623.034729,412.167297 633.653931,431.881256 
	C644.814209,452.599579 661.360474,467.836700 680.406616,480.829132 
	C687.799194,485.872040 694.866455,491.425537 703.423340,494.621674 
	C706.465271,495.757843 706.340759,498.561859 703.372375,500.171814 
	C688.359192,508.314545 674.938599,518.694580 662.185913,529.910706 
	C654.133545,536.992737 648.136841,545.815979 642.940674,555.220825 
	C633.551575,572.214661 628.210632,590.757019 621.920349,608.943909 
	C619.916138,614.738525 617.874939,620.520386 615.826416,626.377441 
	C618.616150,629.181885 622.169983,629.272583 625.449768,630.265015 
	C644.964600,636.170166 664.951660,640.396301 684.304810,646.859497 
	C703.930664,653.413635 724.175598,657.713867 744.051086,663.351807 
	C752.785767,665.829468 761.294678,669.104797 770.428223,670.022766 
	C772.643860,670.245483 773.735718,672.166199 774.783691,673.850647 
	C781.804199,685.136169 788.754028,696.465637 795.791504,707.740540 
	C796.709473,709.211243 797.669922,710.595886 796.886292,712.337341 
	C796.027710,714.244995 794.193726,713.979553 792.540894,713.979248 
	C752.556274,713.971191 712.580078,713.031250 672.593018,712.946960 
	C656.670349,712.913391 640.861389,709.699402 625.006226,707.871216 
	C610.019592,706.143066 594.918213,704.822388 580.038513,702.714478 
	C548.446838,698.239075 516.831421,700.842896 485.249481,700.329163 
	C471.192535,700.100586 457.104523,702.551147 443.101440,704.709595 
	C428.505585,706.959412 413.757599,708.218262 399.079346,709.938293 
	C348.934052,715.814392 298.589447,711.930786 248.346786,713.033264 
	C245.851395,713.088013 243.354324,713.263000 240.861893,713.207642 
	C237.197571,713.126160 236.286301,711.219788 238.387100,708.379761 
	C246.603271,697.272522 254.550995,685.987427 261.359772,673.953857 
	C264.471222,668.454895 270.442535,669.377930 275.034302,668.188049 
	C284.636078,665.700012 294.175598,662.953003 303.722321,660.298462 
	C323.709717,654.740723 343.534668,648.600281 363.440063,642.745789 
	C378.712189,638.253967 394.013000,633.859863 409.285126,629.367981 
	C415.089417,627.660828 415.648010,625.951355 413.746979,620.275269 
	C410.272919,609.902405 407.217163,599.390381 403.841339,588.983582 
	C398.158417,571.464417 389.829620,555.278442 379.125793,540.287720 
	C366.988953,523.290100 349.668030,512.631226 332.403992,501.907349 
	C326.245636,498.081970 326.246277,496.597870 332.325531,492.849457 
	C350.518066,481.632050 367.615112,468.968353 381.846924,452.897491 
	C393.218018,440.057068 401.034363,424.975494 407.287659,409.123962 
	C412.488159,395.941101 416.430908,382.369629 417.826813,368.179474 
	C418.198090,364.405243 420.004089,362.622375 423.996185,362.635895 
	C446.325806,362.711700 468.656342,362.705231 490.985596,362.570282 
	C495.680725,362.541870 495.473663,365.077881 495.090088,368.459320 
	C493.066711,386.298218 486.590027,402.810242 480.343262,419.430084 
	C473.577820,437.429932 465.108917,454.515137 453.833313,470.102509 
	C447.682281,478.605682 440.013489,485.815796 432.693390,493.301117 
	C431.646179,494.371979 430.563232,495.418793 429.412964,496.375885 
	C426.305756,498.961151 426.255768,501.203064 429.328339,504.149567 
	C439.906067,514.293396 450.354218,524.609314 458.394165,536.988892 
	C471.856659,557.717896 482.284027,579.938293 490.261017,603.303040 
	C494.543762,615.847290 497.364471,628.811035 500.633484,641.638977 
	C501.444977,644.823303 502.879120,646.016174 506.124176,645.908264 
	C513.283630,645.670166 520.452637,645.656799 527.617493,645.674072 
	C530.709290,645.681519 532.240845,644.764893 532.973389,641.324585 
	C538.486023,615.435608 546.243103,590.298401 558.263855,566.569885 
	C564.966309,553.339600 572.421204,540.594482 580.983948,528.067322 
z"/>
<path fill="#2B2D31" d="M679.002563,397.902252 
	C766.303284,397.857971 853.104431,397.817719 939.905640,397.783936 
	C946.184998,397.781494 946.573059,398.294006 946.602417,404.605713 
	C946.684570,422.260254 946.759827,439.915894 947.045837,457.567688 
	C947.116272,461.911774 945.581787,464.579224 941.795349,466.820557 
	C911.453918,484.780853 881.162170,502.826904 850.973145,521.042236 
	C826.327393,535.912903 801.978638,551.279053 777.239868,565.991089 
	C761.523254,575.337646 745.993958,584.974121 730.461853,594.612732 
	C728.343262,595.927429 726.128052,596.120605 723.768677,596.118835 
	C708.274353,596.107178 692.780090,596.138489 677.285767,596.130859 
	C670.748779,596.127625 669.876343,594.727722 672.417542,588.659729 
	C676.140625,579.769897 679.723083,570.838623 684.380859,562.349548 
	C687.433411,556.786072 690.836609,552.109253 696.975830,549.517822 
	C705.264221,546.019226 712.315002,540.268433 720.110840,535.856689 
	C745.148132,521.687683 770.205994,507.553406 795.350952,493.576691 
	C819.480225,480.164581 843.729004,466.967377 867.921082,453.668213 
	C869.213562,452.957733 870.630127,452.339630 871.012085,450.552704 
	C869.553406,448.534912 867.376038,449.392059 865.552734,449.387482 
	C816.237915,449.263702 766.922852,449.146271 717.608093,449.216949 
	C712.439880,449.224365 708.671448,447.887695 704.825989,444.139191 
	C693.743591,433.336334 682.044434,423.168610 670.687744,412.643219 
	C667.769592,409.938721 665.069946,406.959351 662.543945,403.881348 
	C659.732300,400.455322 660.636230,398.310272 665.012146,398.047394 
	C669.495789,397.778015 674.005005,397.936584 679.002563,397.902252 
z"/>
<path fill="#2B2D31" d="M167.909943,510.136383 
	C150.131592,499.307648 132.646729,488.694305 115.148994,478.102264 
	C108.321556,473.969330 101.529945,469.770264 94.593407,465.827667 
	C91.375732,463.998749 89.842781,461.863983 89.884132,457.918579 
	C90.065712,440.593170 89.882889,423.264160 89.873085,405.936432 
	C89.868683,398.153076 90.186943,397.865356 98.069351,397.866394 
	C172.882156,397.876312 247.694946,397.891113 322.507751,397.908478 
	C336.503906,397.911713 350.500122,397.923920 364.496216,397.954407 
	C366.634033,397.959076 369.262421,397.484802 370.380188,399.706604 
	C371.602539,402.136230 369.194458,403.594482 367.767883,405.107422 
	C353.941315,419.770874 338.689148,432.973755 324.513458,447.280273 
	C322.370392,449.443115 319.679077,449.198090 317.022919,449.197906 
	C270.868256,449.195129 224.713593,449.189148 178.558929,449.183990 
	C173.799362,449.183472 169.039795,449.183899 163.984528,450.353729 
	C169.560486,453.726959 175.066879,457.221924 180.723801,460.453369 
	C213.944016,479.430084 247.043823,498.625854 280.501984,517.174683 
	C300.145355,528.064758 319.863251,538.796753 339.033478,550.510315 
	C341.528687,552.034973 343.430023,553.922913 344.892731,556.461975 
	C351.141571,567.309082 355.333496,579.092102 360.457062,590.448547 
	C362.230347,594.379028 360.978943,596.140930 356.748108,596.151184 
	C341.419312,596.188354 326.090332,596.145813 310.761444,596.146423 
	C308.359802,596.146484 306.235229,595.454224 304.174591,594.179565 
	C269.221771,572.558838 234.249207,550.969910 199.268723,529.393860 
	C188.931412,523.017761 178.556168,516.703125 167.909943,510.136383 
z"/>
<path fill="#FF6A1A" d="M546.368774,166.632263 
	C554.040649,174.949478 560.939270,183.537186 570.582947,189.280029 
	C573.838562,191.218781 573.455750,194.148712 569.764038,196.827408 
	C561.775391,202.623871 554.590698,209.168152 548.433777,216.963348 
	C538.468872,229.579987 530.000549,243.044083 524.018433,257.972565 
	C522.232178,262.430176 519.616638,266.565704 518.698792,271.381714 
	C518.445190,272.712433 517.736511,273.942108 516.093811,273.972961 
	C514.588440,274.001251 513.568970,273.133423 513.021729,271.819855 
	C511.998840,269.364380 511.021637,266.886719 510.121307,264.383789 
	C504.501862,248.761292 496.323090,234.449600 486.743713,221.034622 
	C480.170013,211.828751 471.723480,204.162064 462.674316,197.313797 
	C458.235382,193.954468 458.183014,191.603836 462.831573,188.245743 
	C486.422638,171.203796 503.459564,149.217926 513.002441,121.595436 
	C513.540527,120.037971 513.849609,118.159317 515.948120,118.025223 
	C518.562805,117.858154 519.145264,120.087975 519.871704,121.890221 
	C526.382874,138.044601 534.395874,153.304443 546.368774,166.632263 
z"/>
<path fill="#FF6A1A" d="M412.113403,302.901062 
	C397.520599,289.766327 383.212372,276.843842 368.828827,264.005737 
	C361.886322,257.809143 354.764648,251.813644 347.795441,245.646454 
	C343.284546,241.654678 343.291962,240.038025 348.219360,236.395462 
	C356.136566,230.542679 363.318970,223.883652 370.344940,217.028320 
	C374.644806,212.832916 376.057861,212.882690 379.035797,217.870926 
	C388.405548,233.565842 397.290833,249.541489 406.365448,265.404053 
	C413.995209,278.740906 418.845398,293.294739 426.236694,306.669067 
	C427.363129,308.707397 427.397522,310.551666 425.520844,311.989929 
	C423.665924,313.411499 421.885895,312.492584 420.755035,310.924377 
	C418.463654,307.746826 415.178101,305.718903 412.113403,302.901062 
z"/>
<path fill="#FF6A1A" d="M670.136719,222.849548 
	C675.496399,227.858429 680.524963,232.694504 686.380554,236.590607 
	C689.634644,238.755676 689.734253,241.297440 686.492737,243.775803 
	C663.077454,261.678650 641.495789,281.658600 620.271790,302.057251 
	C616.574463,305.610779 612.282227,308.548615 608.228699,311.724823 
	C607.620544,312.201294 606.813904,312.424408 606.153931,312.738586 
	C603.956299,311.056183 604.135437,309.461639 605.190796,307.376099 
	C612.069153,293.784088 618.303772,279.837311 625.754578,266.571411 
	C635.186157,249.779007 645.540222,233.503082 655.580566,217.055756 
	C657.516113,213.885223 659.843079,213.225357 662.743286,216.398697 
	C664.855835,218.710144 667.493469,220.541565 670.136719,222.849548 
z"/>
<path fill="#FF6A1A" d="M750.574768,288.534668 
	C752.206116,285.828064 753.529419,283.345306 755.020020,280.967407 
	C757.521606,276.976776 759.841431,276.848053 762.585205,280.725586 
	C766.309448,285.988800 768.826660,291.970886 773.098938,296.988220 
	C777.226196,301.835297 781.642151,306.211578 786.599060,310.152527 
	C791.922668,314.385040 791.668091,315.761353 785.645630,318.506592 
	C773.541870,324.023895 760.620544,327.338715 748.360779,332.431549 
	C744.549438,334.014832 741.456055,333.151062 738.464233,330.173706 
	C733.995850,325.726715 730.309875,320.574493 725.466492,316.451965 
	C722.348511,313.798004 724.431091,311.490967 726.876831,309.562378 
	C735.089478,303.086365 743.421692,296.743378 750.574768,288.534668 
z"/>
<path fill="#FF6A1A" d="M305.993866,312.375854 
	C305.079437,316.702606 289.459351,332.114349 285.780212,332.068146 
	C280.610626,332.003296 275.699280,330.079193 270.897797,328.287109 
	C262.648132,325.208038 253.806198,324.062927 245.771164,320.289459 
	C240.487564,317.808136 240.215973,315.536285 244.339523,311.628540 
	C253.790543,302.672180 261.657532,292.424072 267.894867,280.972504 
	C268.807922,279.296173 269.669006,277.624176 271.752380,277.511719 
	C273.663300,277.408569 274.857605,278.882141 275.504730,280.381775 
	C280.496613,291.949554 290.386353,298.862640 299.856079,306.162445 
	C302.105255,307.896271 304.450531,309.466492 305.993866,312.375854 
z"/>
</g>
</svg>
