<svg xmlns="http://www.w3.org/2000/svg" viewBox="24 104 976 760" role="img" aria-labelledby="codeforge-logo-title">
<title id="codeforge-logo-title">CodeForge</title>
<g>
<path fill="#2B2D31" d="M580.983948,528.067322 
	C588.325806,520.083618 595.166931,512.107605 603.242798,505.356323 
	C606.699768,502.466370 607.272156,500.343262 603.393311,496.754852 
	C588.689575,483.152008 575.030518,468.537872 565.397644,450.755157 
	C555.565186,432.604218 547.812378,413.565521 541.843506,393.775818 
	C539.687439,386.627228 537.971008,379.396362 536.282349,372.146423 
	C534.406616,364.093506 535.579834,362.680878 543.703552,362.681183 
	C564.367615,362.681946 585.032898,362.777832 605.694763,362.559814 
	C610.735474,362.506592 612.503357,364.182373 613.190857,369.293518 
	C616.160034,391.368225 623.034729,412.167297 633.653931,431.881256 
	C644.814209,452.599579 661.360474,467.836700 680.406616,480.829132 
	C687.799194,485.872040 694.866455,491.425537 703.423340,494.621674 
	C706.465271,495.757843 706.340759,498.561859 703.372375,500.171814 
	C688.359192,508.314545 674.938599,518.694580 662.185913,529.910706 
	C654.133545,536.992737 648.136841,545.815979 642.940674,555.220825 
	C633.551575,572.214661 628.210632,590.757019 621.920349,608.943909 
	C619.916138,614.738525 617.874939,620.520386 615.826416,626.377441 
	C618.616150,629.181885 622.169983,629.272583 625.449768,630.265015 
	C644.964600,636.170166 664.951660,640.396301 684.304810,646.859497 
	C703.930664,653.413635 724.175598,657.713867 744.051086,663.351807 
	C752.785767,665.829468 761.294678,669.104797 770.428223,670.022766 
	C772.643860,670.245483 773.735718,672.166199 774.783691,673.850647 
	C781.804199,685.136169 788.754028,696.465637 795.791504,707.740540 
	C796.709473,709.211243 797.669922,710.595886 796.886292,712.337341 
	C796.027710,714.244995 794.193726,713.979553 792.540894,713.979248 
	C752.556274,713.971191 712.580078,713.031250 672.593018,712.946960 
	C656.670349,712.913391 640.861389,709.699402 625.006226,707.871216 
	C610.019592,706.143066 594.918213,704.822388 580.038513,702.714478 
	C548.446838,698.239075 516.831421,700.842896 485.249481,700.329163 
	C471.192535,700.100586 457.104523,702.551147 443.101440,704.709595 
	C428.505585,706.959412 413.757599,708.218262 399.079346,709.938293 
	C348.934052,715.814392 298.589447,711.930786 248.346786,713.033264 
	C245.851395,713.088013 243.354324,713.263000 240.861893,713.207642 
	C237.197571,713.126160 236.286301,711.219788 238.387100,708.379761 
	C246.603271,697.272522 254.550995,685.987427 261.359772,673.953857 
	C264.471222,668.454895 270.442535,669.377930 275.034302,668.188049 
	C284.636078,665.700012 294.175598,662.953003 303.722321,660.298462 
	C323.709717,654.740723 343.534668,648.600281 363.440063,642.745789 
	C378.712189,638.253967 394.013000,633.859863 409.285126,629.367981 
	C415.089417,627.660828 415.648010,625.951355 413.746979,620.275269 
	C410.272919,609.902405 407.217163,599.390381 403.841339,588.983582 
	C398.158417,571.464417 389.829620,555.278442 379.125793,540.287720 
	C366.988953,523.290100 349.668030,512.631226 332.403992,501.907349 
	C326.245636,498.081970 326.246277,496.597870 332.325531,492.849457 
	C350.518066,481.632050 367.615112,468.968353 381.846924,452.897491 
	C393.218018,440.057068 401.034363,424.975494 407.287659,409.123962 
	C412.488159,395.941101 416.430908,382.369629 417.826813,368.179474 
	C418.198090,364.405243 420.004089,362.622375 423.996185,362.635895 
	C446.325806,362.711700 468.656342,362.705231 490.985596,362.570282 
	C495.680725,362.541870 495.473663,365.077881 495.090088,368.459320 
	C493.066711,386.298218 486.590027,402.810242 480.343262,419.430084 
	C473.577820,437.429932 465.108917,454.515137 453.833313,470.102509 
	C447.682281,478.605682 440.013489,485.815796 432.693390,493.301117 
	C431.646179,494.371979 430.563232,495.418793 429.412964,496.375885 
	C426.305756,498.961151 426.255768,501.203064 429.328339,504.149567 
	C439.906067,514.293396 450.354218,524.609314 458.394165,536.988892 
	C471.856659,557.717896 482.284027,579.938293 490.261017,603.303040 
	C494.543762,615.847290 497.364471,628.811035 500.633484,641.638977 
	C501.444977,644.823303 502.879120,646.016174 506.124176,645.908264 
	C513.283630,645.670166 520.452637,645.656799 527.617493,645.674072 
	C530.709290,645.681519 532.240845,644.764893 532.973389,641.324585 
	C538.486023,615.435608 546.243103,590.298401 558.263855,566.569885 
	C564.966309,553.339600 572.421204,540.594482 580.983948,528.067322 
z"/>
<path fill="#2B2D31" d="M679.002563,397.902252 
	C766.303284,397.857971 853.104431,397.817719 939.905640,397.783936 
	C946.184998,397.781494 946.573059,398.294006 946.602417,404.605713 
	C946.684570,422.260254 946.759827,439.915894 947.045837,457.567688 
	C947.116272,461.911774 945.581787,464.579224 941.795349,466.820557 
	C911.453918,484.780853 881.162170,502.826904 850.973145,521.042236 
	C826.327393,535.912903 801.978638,551.279053 777.239868,565.991089 
	C761.523254,575.337646 745.993958,584.974121 730.461853,594.612732 
	C728.343262,595.927429 726.128052,596.120605 723.768677,596.118835 
	C708.274353,596.107178 692.780090,596.138489 677.285767,596.130859 
	C670.748779,596.127625 669.876343,594.727722 672.417542,588.659729 
	C676.140625,579.769897 679.723083,570.838623 684.380859,562.349548 
	C687.433411,556.786072 690.836609,552.109253 696.975830,549.517822 
	C705.264221,546.019226 712.315002,540.268433 720.110840,535.856689 
	C745.148132,521.687683 770.205994,507.553406 795.350952,493.576691 
	C819.480225,480.164581 843.729004,466.967377 867.921082,453.668213 
	C869.213562,452.957733 870.630127,452.339630 871.012085,450.552704 
	C869.553406,448.534912 867.376038,449.392059 865.552734,449.387482 
	C816.237915,449.263702 766.922852,449.146271 717.608093,449.216949 
	C712.439880,449.224365 708.671448,447.887695 704.825989,444.139191 
	C693.743591,433.336334 682.044434,423.168610 670.687744,412.643219 
	C667.769592,409.938721 665.069946,406.959351 662.543945,403.881348 
	C659.732300,400.455322 660.636230,398.310272 665.012146,398.047394 
	C669.495789,397.778015 674.005005,397.936584 679.002563,397.902252 
z"/>
<path fill="#2B2D31" d="M167.909943,510.136383 
	C150.131592,499.307648 132.646729,488.694305 115.148994,478.102264 
	C108.321556,473.969330 101.529945,469.770264 94.593407,465.827667 
	C91.375732,463.998749 89.842781,461.863983 89.884132,457.918579 
	C90.065712,440.593170 89.882889,423.264160 89.873085,405.936432 
	C89.868683,398.153076 90.186943,397.865356 98.069351,397.866394 
	C172.882156,397.876312 247.694946,397.891113 322.507751,397.908478 
	C336.503906,397.911713 350.500122,397.923920 364.496216,397.954407 
	C366.634033,397.959076 369.262421,397.484802 370.380188,399.706604 
	C371.602539,402.136230 369.194458,403.594482 367.767883,405.107422 
	C353.941315,419.770874 338.689148,432.973755 324.513458,447.280273 
	C322.370392,449.443115 319.679077,449.198090 317.022919,449.197906 
	C270.868256,449.195129 224.713593,449.189148 178.558929,449.183990 
	C173.799362,449.183472 169.039795,449.183899 163.984528,450.353729 
	C169.560486,453.726959 175.066879,457.221924 180.723801,460.453369 
	C213.944016,479.430084 247.043823,498.625854 280.501984,517.174683 
	C300.145355,528.064758 319.863251,538.796753 339.033478,550.510315 
	C341.528687,552.034973 343.430023,553.922913 344.892731,556.461975 
	C351.141571,567.309082 355.333496,579.092102 360.457062,590.448547 
	C362.230347,594.379028 360.978943,596.140930 356.748108,596.151184 
	C341.419312,596.188354 326.090332,596.145813 310.761444,596.146423 
	C308.359802,596.146484 306.235229,595.454224 304.174591,594.179565 
	C269.221771,572.558838 234.249207,550.969910 199.268723,529.393860 
	C188.931412,523.017761 178.556168,516.703125 167.909943,510.136383 
z"/>
<path fill="#2B2D31" d="M234.772583,835.715820 
	C227.798813,844.514160 218.819153,849.084106 208.253296,850.847351 
	C193.467865,853.314636 178.716751,853.473999 164.264862,849.097107 
	C150.146042,844.821106 141.226685,835.104004 136.643356,821.194641 
	C132.125534,807.483887 132.942581,793.896729 138.130936,780.663635 
	C143.589600,766.741333 154.955795,759.316650 168.849426,756.083130 
	C182.423630,752.923828 196.316177,752.953552 209.974655,756.081299 
	C231.499573,761.010498 244.633942,778.201538 244.953629,801.142700 
	C245.127472,813.619080 242.680786,825.271973 234.772583,835.715820 
M196.704376,829.464661 
	C207.481201,827.828369 212.583649,821.118774 214.270874,810.727356 
	C215.459320,803.407837 214.566376,796.469055 212.139664,789.671814 
	C209.476761,782.213013 203.785538,777.986877 196.079544,777.362793 
	C185.884232,776.537170 175.091919,775.882996 168.824203,786.257507 
	C162.228531,797.174988 162.537323,808.943726 168.488205,820.022156 
	C173.657684,829.645935 183.280090,830.197266 192.871567,829.913147 
	C193.865448,829.883789 194.855728,829.733032 196.704376,829.464661 
z"/>
<path fill="#2B2D31" d="M291.999878,850.402954 
	C281.671814,850.391296 271.842041,850.268982 262.016571,850.421204 
	C258.136139,850.481384 256.699890,849.000549 256.713837,845.140198 
	C256.815094,817.155457 256.841064,789.170044 256.746124,761.185364 
	C256.731873,756.984863 258.425079,755.718872 262.434387,755.757080 
	C277.424866,755.899902 292.422577,755.559998 307.407837,755.870483 
	C317.112549,756.071533 326.700378,757.860535 335.438232,762.276978 
	C346.358704,767.796692 352.888214,777.174072 355.668060,788.837280 
	C358.540527,800.888977 357.749908,812.954041 353.371735,824.649170 
	C347.905060,839.251953 336.591431,846.375488 321.894806,849.213257 
	C312.145782,851.095703 302.302185,850.122437 291.999878,850.402954 
M295.490356,778.265564 
	C293.658203,778.268127 291.825226,778.307251 289.994141,778.264526 
	C287.354462,778.203003 285.965027,779.295288 285.974304,782.090515 
	C286.021332,796.247864 286.023224,810.405334 286.023376,824.562805 
	C286.023407,826.933533 286.780487,828.307678 289.518646,828.187378 
	C295.504791,827.924500 301.526001,828.156799 307.484314,827.633484 
	C317.308197,826.770691 323.170410,821.555786 326.031769,812.103149 
	C327.176575,808.321350 326.998779,804.472046 326.709137,800.705933 
	C325.822266,789.175171 321.408875,783.173584 311.722229,780.108643 
	C306.756989,778.537476 301.622223,778.158325 295.490356,778.265564 
z"/>
<path fill="#2B2D31" d="M425.000000,828.009827 
	C432.830872,828.041199 440.162598,828.150208 447.492310,828.072083 
	C451.137329,828.033203 452.616241,829.626038 452.473053,833.216492 
	C452.300537,837.542969 452.283356,841.879272 452.336609,846.209717 
	C452.372009,849.086609 451.327454,850.451538 448.245544,850.442444 
	C423.609436,850.369385 398.972961,850.359924 374.336761,850.414429 
	C370.797913,850.422241 369.762817,848.768616 369.768097,845.488892 
	C369.813721,817.164673 369.801941,788.840088 369.714996,760.515991 
	C369.704315,757.037598 371.209290,755.757324 374.515656,755.760376 
	C398.674713,755.782593 422.833954,755.775696 446.992920,755.706116 
	C450.526306,755.695923 452.258209,757.065613 452.165314,760.719177 
	C452.059479,764.881714 452.041351,769.052124 452.169922,773.213379 
	C452.286621,776.990173 450.830658,778.317383 446.876617,778.532776 
	C433.045624,779.286194 419.246399,777.901123 405.430511,778.328369 
	C399.427002,778.513977 399.609344,778.476135 399.264740,787.266296 
	C399.079193,791.998352 401.264679,792.854370 405.283142,792.751465 
	C416.271515,792.470154 427.268829,792.531433 438.256439,792.231445 
	C442.111542,792.126221 443.866974,793.498047 443.673309,797.394165 
	C443.491669,801.048462 443.241821,804.720703 443.420624,808.365479 
	C443.598602,811.992920 441.856445,813.090576 438.631470,813.055603 
	C427.969818,812.940002 417.303894,813.013916 406.646942,812.735474 
	C400.027802,812.562439 399.368683,812.936462 399.339905,819.393250 
	C399.335449,820.392944 399.441010,821.406067 399.315582,822.390015 
	C398.756531,826.777039 400.654388,828.331909 405.009216,828.140442 
	C411.495514,827.855286 418.002075,828.030762 425.000000,828.009827 
z"/>
<path fill="#2B2D31" d="M124.986214,765.331360 
	C124.986458,769.792786 125.065437,773.792969 124.968391,777.788879 
	C124.845604,782.844482 124.157829,783.150085 119.339088,781.919800 
	C108.495064,779.151123 97.569572,777.357422 86.272163,778.847107 
	C69.114845,781.109314 63.925343,792.889343 65.665909,808.348816 
	C67.139732,821.439148 74.815216,827.774231 88.022789,828.820740 
	C98.623962,829.660583 108.954140,828.478027 119.012093,824.954407 
	C124.048599,823.189880 125.039268,823.843933 125.105560,828.993347 
	C125.167725,833.823242 125.059036,838.655273 125.053749,843.486328 
	C125.050919,846.076599 124.217911,848.013367 121.448952,848.723999 
	C104.765419,853.005371 87.821007,854.293152 71.008224,850.574341 
	C47.286373,845.327393 35.627960,831.044250 34.105629,806.808716 
	C33.457241,796.486389 35.444611,786.588135 40.062386,777.289734 
	C47.400642,762.513306 61.050220,757.221069 75.878090,755.047546 
	C90.594032,752.890503 105.380768,753.678711 119.826363,758.336914 
	C123.577316,759.546570 125.191086,761.157288 124.986214,765.331360 
z"/>
<path fill="#FF6A1A" d="M546.368774,166.632263 
	C554.040649,174.949478 560.939270,183.537186 570.582947,189.280029 
	C573.838562,191.218781 573.455750,194.148712 569.764038,196.827408 
	C561.775391,202.623871 554.590698,209.168152 548.433777,216.963348 
	C538.468872,229.579987 530.000549,243.044083 524.018433,257.972565 
	C522.232178,262.430176 519.616638,266.565704 518.698792,271.381714 
	C518.445190,272.712433 517.736511,273.942108 516.093811,273.972961 
	C514.588440,274.001251 513.568970,273.133423 513.021729,271.819855 
	C511.998840,269.364380 511.021637,266.886719 510.121307,264.383789 
	C504.501862,248.761292 496.323090,234.449600 486.743713,221.034622 
	C480.170013,211.828751 471.723480,204.162064 462.674316,197.313797 
	C458.235382,193.954468 458.183014,191.603836 462.831573,188.245743 
	C486.422638,171.203796 503.459564,149.217926 513.002441,121.595436 
	C513.540527,120.037971 513.849609,118.159317 515.948120,118.025223 
	C518.562805,117.858154 519.145264,120.087975 519.871704,121.890221 
	C526.382874,138.044601 534.395874,153.304443 546.368774,166.632263 
z"/>
<path fill="#FF6A1A" d="M657.608521,766.354980 
	C669.152954,777.085205 672.005676,790.706055 671.609985,805.229187 
	C671.425781,811.991394 670.670898,818.869690 668.053040,825.281006 
	C662.999939,837.656677 653.791138,845.953003 641.202271,849.553040 
	C621.704895,855.128723 602.260437,855.362122 583.159485,846.825195 
	C573.972473,842.719055 567.970093,835.775208 564.317688,827.109741 
	C557.500854,810.936523 557.203247,794.202332 564.460388,778.105042 
	C572.245056,760.837708 587.729797,755.481628 605.197693,754.113708 
	C613.514526,753.462402 621.832520,753.867737 630.125061,754.634583 
	C640.394287,755.584106 649.225220,760.018860 657.608521,766.354980 
M640.369690,807.906982 
	C640.855225,799.485840 640.616516,791.128357 634.972168,784.214966 
	C626.523865,773.867065 603.253296,775.391785 596.295837,783.987488 
	C592.481934,788.699402 590.972778,794.066528 590.566101,799.638672 
	C589.112610,819.554932 596.779541,829.643066 615.272705,829.800659 
	C628.501892,829.913330 638.804871,823.692566 640.369690,807.906982 
z"/>
<path fill="#FF6A1A" d="M707.969177,755.092957 
	C722.571777,755.466003 736.716064,754.832092 750.795227,756.678528 
	C763.953369,758.404175 775.179993,766.447937 777.477844,778.042236 
	C780.218323,791.870300 778.743713,804.336975 765.860657,813.087708 
	C761.633484,815.959045 762.005310,818.369568 764.880981,821.942993 
	C770.923462,829.451538 776.641724,837.220886 782.503540,844.875183 
	C783.503296,846.180664 785.092834,847.422729 784.232666,849.227966 
	C783.400391,850.974487 781.342346,850.794739 779.775696,850.817200 
	C771.451050,850.936584 763.123901,850.888367 754.797668,850.898010 
	C752.368469,850.900818 750.882141,849.522644 749.554626,847.632874 
	C744.484253,840.415222 739.147400,833.378235 734.264832,826.037842 
	C731.905701,822.491089 729.266174,820.818054 724.890686,820.863037 
	C714.488342,820.970093 714.468079,820.778748 714.307556,831.339661 
	C714.236755,836.002380 714.185791,840.667664 714.260071,845.329590 
	C714.315002,848.769165 713.105469,850.596985 709.336426,850.574646 
	C703.014526,850.537109 696.687683,850.716675 690.368958,850.960938 
	C686.336609,851.116821 684.725952,849.480835 684.759399,845.360352 
	C684.867676,832.036011 684.693176,818.709717 684.666504,805.384033 
	C684.637146,790.739075 684.728210,776.093201 684.594482,761.449402 
	C684.558472,757.505554 685.803467,755.596558 690.019958,755.627258 
	C695.840149,755.669739 701.663391,755.291870 707.969177,755.092957 
M725.565308,778.157349 
	C723.406677,778.200745 721.247192,778.302368 719.089539,778.273376 
	C716.171448,778.234131 714.699707,779.924500 714.563599,782.519348 
	C714.355469,786.487000 714.387817,790.484131 714.617554,794.451355 
	C714.747559,796.695679 715.676697,798.693726 718.537659,798.681580 
	C725.179443,798.653320 731.839783,798.945618 738.457214,798.536316 
	C743.390381,798.231262 747.220459,793.390137 747.570740,788.137573 
	C747.835327,784.169067 744.633545,780.453003 739.900208,778.990601 
	C735.493225,777.628906 730.990051,778.398743 725.565308,778.157349 
z"/>
<path fill="#FF6A1A" d="M821.034790,799.817993 
	C820.051819,805.806274 820.857178,811.210144 822.838074,816.403076 
	C826.998169,827.308899 836.608643,828.846619 846.445251,829.672913 
	C849.059753,829.892517 851.751648,829.391235 854.390869,829.077332 
	C862.103577,828.159668 862.576111,827.380554 861.960083,819.611877 
	C861.712646,816.491455 860.350037,815.111145 857.364380,814.955566 
	C853.712524,814.765320 850.066040,814.372925 846.413696,814.321472 
	C843.092712,814.274658 841.534180,812.921692 841.581665,809.508911 
	C841.627869,806.189026 841.464600,802.858582 841.227844,799.544556 
	C840.981873,796.101196 842.498352,794.706909 845.885071,794.722900 
	C859.372498,794.786499 872.860596,794.788635 886.348145,794.736328 
	C889.945496,794.722351 891.368408,796.288757 891.337036,799.897583 
	C891.216736,813.717468 891.204590,827.539246 891.299500,841.359314 
	C891.322083,844.654114 890.333984,846.511169 886.933472,847.487488 
	C871.090149,852.036133 854.959717,853.525574 838.552612,852.667419 
	C831.024048,852.273621 823.760437,850.854187 816.684753,848.130005 
	C800.561523,841.922546 793.383545,829.211792 790.726990,813.111328 
	C788.951111,802.347900 790.176453,791.812317 793.971619,781.674988 
	C797.702148,771.710388 804.687988,764.633606 814.450317,760.263000 
	C828.717468,753.875732 843.772766,753.461060 858.986816,754.215881 
	C865.135925,754.520935 871.272278,755.056335 877.222351,756.792053 
	C879.291321,757.395569 881.398254,757.973206 883.343628,758.874084 
	C886.930542,760.535278 888.595276,778.695496 885.445923,781.082031 
	C883.889526,782.261353 882.253174,781.559875 880.665833,781.107056 
	C868.026123,777.501160 855.232117,776.437866 842.134766,778.054016 
	C829.843018,779.570740 822.082153,787.169800 821.034790,799.817993 
z"/>
<path fill="#FF6A1A" d="M986.452148,850.437317 
	C971.119690,851.129883 956.143433,851.108826 941.150757,850.516113 
	C931.684570,850.141846 922.206238,851.033264 912.712280,850.673218 
	C908.941711,850.530212 907.720886,849.165894 907.732849,845.626465 
	C907.828064,817.466003 907.879333,789.305298 907.843079,761.144775 
	C907.838013,757.243835 909.556091,755.799194 913.274597,755.806213 
	C937.102295,755.850952 960.930237,755.853760 984.757935,755.796082 
	C988.568359,755.786865 990.258118,757.485046 990.200439,761.226013 
	C990.141296,765.057129 990.024841,768.899231 990.238586,772.719421 
	C990.470581,776.866882 988.612976,778.167419 984.636414,778.379272 
	C971.311157,779.089539 958.003052,777.839417 944.690674,778.317261 
	C942.495911,778.395996 939.333130,777.336731 938.618591,780.276367 
	C937.730103,783.931152 937.375732,787.940063 939.024353,791.533813 
	C939.796082,793.216064 941.985229,792.708008 943.615112,792.712280 
	C954.446045,792.740845 965.280701,792.894043 976.106445,792.656006 
	C980.740601,792.554077 982.295593,794.410889 982.253418,798.828369 
	C982.090393,815.883179 983.458313,812.938477 968.300537,813.131287 
	C959.970947,813.237244 951.633301,813.238159 943.308777,812.981201 
	C939.355896,812.859131 938.113647,814.307129 938.083557,818.189880 
	C938.003967,828.464417 938.016357,828.668091 948.538696,828.641785 
	C960.850464,828.611023 973.164856,828.629089 985.472168,828.356628 
	C988.929688,828.280090 990.468201,829.369629 990.449829,832.791809 
	C990.424744,837.452637 990.490723,842.113953 990.486816,846.775024 
	C990.484802,849.197327 989.312439,850.509521 986.452148,850.437317 
z"/>
<path fill="#FF6A1A" d="M469.055664,821.976135 
	C469.060120,801.997864 469.065216,782.515198 469.069885,763.032471 
	C469.071472,756.404480 469.806213,755.743469 476.540741,755.743713 
	C499.199249,755.744385 521.857727,755.698669 544.516235,755.678345 
	C551.106995,755.672424 551.907898,756.482178 551.965881,763.152954 
	C551.977478,764.485352 551.918457,765.818237 551.913147,767.151001 
	C551.865967,778.974609 551.867371,779.002441 539.818542,779.020386 
	C528.655945,779.036987 517.493164,778.999939 506.330597,778.958313 
	C499.674591,778.933533 499.413940,779.173462 499.373596,786.015869 
	C499.371643,786.349060 499.368317,786.682312 499.368622,787.015503 
	C499.374634,793.681274 499.560760,793.961121 506.456207,794.014160 
	C516.617432,794.092407 526.779907,794.035461 536.941772,794.004944 
	C542.741028,793.987488 543.560059,794.858948 543.432068,800.629761 
	C543.358398,803.953857 543.446350,807.286438 543.594360,810.609314 
	C543.760376,814.335754 542.314026,816.173706 538.355896,816.060303 
	C527.705994,815.755005 517.052002,815.559448 506.398315,815.434265 
	C499.953064,815.358582 499.362183,816.003906 499.308533,822.635498 
	C499.249268,829.965820 499.146088,837.300903 499.345245,844.626282 
	C499.455963,848.697693 498.444427,850.835754 493.800781,850.669189 
	C487.488586,850.442810 481.153870,850.749390 474.831848,850.932190 
	C471.284424,851.034729 469.686737,849.552979 469.650696,845.916321 
	C469.573303,838.100220 469.268097,830.286438 469.055664,821.976135 
z"/>
<path fill="#FF6A1A" d="M412.113403,302.901062 
	C397.520599,289.766327 383.212372,276.843842 368.828827,264.005737 
	C361.886322,257.809143 354.764648,251.813644 347.795441,245.646454 
	C343.284546,241.654678 343.291962,240.038025 348.219360,236.395462 
	C356.136566,230.542679 363.318970,223.883652 370.344940,217.028320 
	C374.644806,212.832916 376.057861,212.882690 379.035797,217.870926 
	C388.405548,233.565842 397.290833,249.541489 406.365448,265.404053 
	C413.995209,278.740906 418.845398,293.294739 426.236694,306.669067 
	C427.363129,308.707397 427.397522,310.551666 425.520844,311.989929 
	C423.665924,313.411499 421.885895,312.492584 420.755035,310.924377 
	C418.463654,307.746826 415.178101,305.718903 412.113403,302.901062 
z"/>
<path fill="#FF6A1A" d="M670.136719,222.849548 
	C675.496399,227.858429 680.524963,232.694504 686.380554,236.590607 
	C689.634644,238.755676 689.734253,241.297440 686.492737,243.775803 
	C663.077454,261.678650 641.495789,281.658600 620.271790,302.057251 
	C616.574463,305.610779 612.282227,308.548615 608.228699,311.724823 
	C607.620544,312.201294 606.813904,312.424408 606.153931,312.738586 
	C603.956299,311.056183 604.135437,309.461639 605.190796,307.376099 
	C612.069153,293.784088 618.303772,279.837311 625.754578,266.571411 
	C635.186157,249.779007 645.540222,233.503082 655.580566,217.055756 
	C657.516113,213.885223 659.843079,213.225357 662.743286,216.398697 
	C664.855835,218.710144 667.493469,220.541565 670.136719,222.849548 
z"/>
<path fill="#FF6A1A" d="M750.574768,288.534668 
	C752.206116,285.828064 753.529419,283.345306 755.020020,280.967407 
	C757.521606,276.976776 759.841431,276.848053 762.585205,280.725586 
	C766.309448,285.988800 768.826660,291.970886 773.098938,296.988220 
	C777.226196,301.835297 781.642151,306.211578 786.599060,310.152527 
	C791.922668,314.385040 791.668091,315.761353 785.645630,318.506592 
	C773.541870,324.023895 760.620544,327.338715 748.360779,332.431549 
	C744.549438,334.014832 741.456055,333.151062 738.464233,330.173706 
	C733.995850,325.726715 730.309875,320.574493 725.466492,316.451965 
	C722.348511,313.798004 724.431091,311.490967 726.876831,309.562378 
	C735.089478,303.086365 743.421692,296.743378 750.574768,288.534668 
z"/>
<path fill="#FF6A1A" d="M305.993866,312.375854 
	C305.079437,316.702606 289.459351,332.114349 285.780212,332.068146 
	C280.610626,332.003296 275.699280,330.079193 270.897797,328.287109 
	C262.648132,325.208038 253.806198,324.062927 245.771164,320.289459 
	C240.487564,317.808136 240.215973,315.536285 244.339523,311.628540 
	C253.790543,302.672180 261.657532,292.424072 267.894867,280.972504 
	C268.807922,279.296173 269.669006,277.624176 271.752380,277.511719 
	C273.663300,277.408569 274.857605,278.882141 275.504730,280.381775 
	C280.496613,291.949554 290.386353,298.862640 299.856079,306.162445 
	C302.105255,307.896271 304.450531,309.466492 305.993866,312.375854 
z"/>
</g>
</svg>
