<svg xmlns="http://www.w3.org/2000/svg" width="1024" height="1024" viewBox="0 0 1024 1024">
<g>
<path d="M 388.00 709.02 C377.86,710.18 240.06,710.91 239.38,709.81 C238.71,708.72 240.32,705.90 248.43,694.00 C252.37,688.22 257.29,680.69 259.36,677.25 C262.06,672.80 263.91,670.82 265.82,670.37 C273.85,668.46 288.03,664.77 299.50,661.59 C306.65,659.61 314.08,657.57 316.00,657.07 C325.45,654.59 349.86,647.48 361.00,643.96 C374.04,639.84 391.92,634.59 407.82,630.20 C415.22,628.16 417.03,627.31 416.60,626.07 C415.63,623.25 410.94,608.81 405.86,593.00 C400.38,575.95 390.30,554.67 381.74,542.11 C371.97,527.78 356.06,513.87 335.25,501.49 C331.81,499.44 329.00,497.20 329.00,496.52 C329.00,495.42 336.07,490.00 337.51,490.00 C337.81,490.00 341.53,487.40 345.78,484.21 C350.02,481.03 355.30,477.20 357.50,475.70 C362.56,472.26 380.61,454.84 384.85,449.32 C400.46,428.96 412.17,401.54 417.00,374.00 C417.62,370.42 418.34,366.48 418.59,365.24 L 419.04 362.98 L 493.50 363.50 L 493.18 366.50 C491.73,380.20 485.51,400.44 474.29,428.00 C464.54,451.94 454.00,468.03 436.33,485.91 C429.04,493.28 423.35,499.75 423.68,500.29 C424.01,500.82 426.09,502.88 428.30,504.88 C451.29,525.56 464.80,546.03 481.52,585.51 C487.38,599.33 490.24,608.58 497.01,635.50 C498.25,640.45 499.72,645.07 500.28,645.77 C501.04,646.73 505.17,646.98 516.89,646.77 L 532.50 646.50 L 532.83 644.00 C533.46,639.21 538.15,620.63 541.63,609.11 C547.21,590.64 560.75,560.27 569.66,546.23 C571.50,543.33 573.00,540.74 573.00,540.47 C573.00,538.22 583.86,525.06 595.12,513.68 L 608.78 499.87 L 595.59 486.68 C579.76,470.86 570.19,458.29 562.72,443.50 C556.38,430.96 552.00,421.61 552.00,420.64 C552.00,420.28 551.13,418.07 550.07,415.74 C545.01,404.67 537.21,376.94 536.76,368.45 L 536.50 363.50 L 572.38 363.24 C598.03,363.05 608.65,363.30 609.63,364.11 C610.38,364.73 611.00,366.53 611.00,368.11 C611.00,369.68 611.44,372.89 611.98,375.24 C612.52,377.58 613.94,383.77 615.13,389.00 C618.15,402.28 621.23,410.53 628.66,425.19 C638.46,444.54 645.63,453.40 665.00,470.14 C668.58,473.23 673.53,477.17 676.00,478.90 C685.64,485.63 694.60,491.32 698.71,493.31 C702.52,495.16 704.56,498.00 702.08,498.00 C699.91,498.00 673.76,516.34 665.51,523.64 C657.93,530.35 644.18,546.03 644.04,548.13 C644.02,548.47 641.95,552.46 639.44,556.99 C635.08,564.88 630.26,575.98 627.49,584.50 C625.32,591.17 615.19,620.28 613.82,623.79 C612.27,627.75 613.03,628.48 619.78,629.49 C622.22,629.86 627.43,631.17 631.36,632.41 C635.29,633.66 641.42,635.51 645.00,636.54 C648.58,637.56 651.79,638.83 652.15,639.35 C652.51,639.88 655.57,640.68 658.96,641.15 C662.34,641.61 668.35,643.04 672.30,644.33 C676.26,645.61 681.53,647.24 684.00,647.95 C686.47,648.65 689.62,649.59 691.00,650.04 C699.12,652.66 711.56,656.05 718.45,657.52 C722.82,658.46 730.02,660.35 734.45,661.72 C738.88,663.10 748.93,665.92 756.78,667.98 L 771.06 671.75 L 773.90 676.12 C787.39,696.88 794.88,709.52 794.13,710.27 C792.91,711.49 657.98,710.50 651.00,709.21 C647.97,708.66 640.55,707.64 634.50,706.94 C628.45,706.25 623.18,705.19 622.79,704.59 C622.39,703.99 619.24,703.50 615.79,703.50 C612.33,703.50 609.18,703.05 608.79,702.50 C608.39,701.94 602.02,701.38 594.31,701.24 C586.74,701.09 578.96,700.45 577.03,699.82 C574.64,699.04 558.12,698.53 526.00,698.26 C476.15,697.83 468.42,698.27 435.50,703.40 C430.55,704.17 419.75,705.53 411.50,706.42 C403.25,707.31 392.67,708.48 388.00,709.02 ZM 726.33 591.48 C724.78,591.74 712.36,592.14 698.75,592.38 C680.51,592.69 673.97,592.50 673.89,591.65 C673.42,586.76 674.48,583.33 680.11,571.50 C687.26,556.47 689.18,554.33 702.03,547.04 C708.38,543.44 716.96,538.38 721.10,535.79 C725.25,533.20 731.08,529.78 734.07,528.20 C737.06,526.61 741.08,524.41 743.00,523.31 C779.45,502.49 802.53,489.64 823.00,478.78 C827.67,476.29 837.35,470.90 844.50,466.78 C851.65,462.66 861.72,457.09 866.88,454.40 C872.05,451.70 876.32,449.05 876.38,448.50 C876.46,447.84 847.78,447.33 792.99,447.00 L 709.48 446.50 L 688.78 427.33 C666.23,406.45 662.00,402.07 662.00,399.62 C662.00,398.14 673.71,398.00 802.30,398.00 C910.09,398.00 942.88,398.28 943.80,399.20 C944.68,400.08 945.00,408.31 945.00,429.98 C945.00,454.40 944.74,459.92 943.53,461.66 C942.03,463.79 935.52,468.00 917.50,478.48 C912.00,481.68 899.62,489.01 890.00,494.77 C865.53,509.40 841.15,523.88 837.00,526.24 C835.08,527.34 827.65,531.94 820.50,536.46 C808.49,544.07 785.90,557.84 783.52,559.00 C781.25,560.11 757.23,574.52 753.50,577.01 C742.94,584.05 737.89,587.00 736.42,587.00 C735.53,587.00 733.54,587.90 731.99,589.01 C730.44,590.11 727.89,591.23 726.33,591.48 ZM 357.00 591.33 C357.00,592.63 353.71,592.81 332.53,592.67 C319.07,592.57 307.48,592.33 306.78,592.13 C306.08,591.93 303.38,590.43 300.78,588.80 C298.19,587.17 295.39,585.73 294.57,585.61 C293.76,585.49 288.00,582.20 281.79,578.30 C275.58,574.39 268.80,570.25 266.72,569.10 C260.08,565.41 226.73,544.76 220.50,540.47 C217.20,538.20 213.82,536.04 213.00,535.66 C212.18,535.29 208.35,532.99 204.50,530.56 C200.65,528.13 193.45,523.77 188.50,520.87 C183.55,517.97 175.10,512.77 169.73,509.30 C164.35,505.84 159.71,503.00 159.42,503.00 C159.13,503.00 155.43,500.86 151.19,498.23 C146.96,495.61 142.60,492.94 141.50,492.29 C135.85,488.96 116.85,477.27 112.33,474.35 C109.49,472.51 106.84,471.00 106.45,471.00 C106.06,471.00 103.66,469.54 101.12,467.75 C98.58,465.96 95.26,463.85 93.74,463.07 L 90.97 461.65 L 91.24 430.07 L 91.50 398.50 L 229.00 398.24 C304.62,398.10 367.09,398.21 367.81,398.49 C370.17,399.38 366.10,404.53 354.53,415.28 C348.48,420.90 338.66,430.23 332.71,436.00 L 321.89 446.50 L 313.70 447.00 C309.19,447.27 272.88,447.27 233.00,447.00 C193.12,446.73 159.87,446.78 159.11,447.12 C158.13,447.55 158.87,448.52 161.59,450.37 C163.72,451.82 165.82,453.00 166.25,453.00 C166.68,453.00 170.29,454.96 174.27,457.35 C181.76,461.85 204.12,474.80 212.00,479.20 C214.48,480.59 218.30,482.75 220.50,484.01 C222.70,485.27 227.43,487.86 231.00,489.76 C238.20,493.60 254.30,502.92 260.50,506.84 C265.72,510.14 283.12,520.00 283.72,520.00 C283.98,520.00 285.39,520.84 286.85,521.86 C288.31,522.89 294.23,526.11 300.00,529.03 C305.77,531.94 311.62,535.10 313.00,536.05 C314.38,537.00 319.33,539.99 324.00,542.69 C328.67,545.39 333.62,548.26 335.00,549.05 C336.38,549.85 338.57,551.40 339.87,552.50 C342.47,554.70 351.27,571.75 350.47,573.04 C350.20,573.48 351.56,577.44 353.49,581.84 C355.42,586.23 357.00,590.50 357.00,591.33 ZM 203.50 849.60 C190.26,851.64 176.10,851.06 165.00,848.04 C142.67,841.97 130.43,818.51 134.99,790.50 C136.34,782.15 142.08,770.95 147.28,766.49 C156.74,758.38 171.27,753.97 188.34,754.03 C224.23,754.17 243.00,770.61 243.00,801.91 C243.00,817.84 238.98,828.72 229.59,838.19 C222.94,844.90 216.86,847.55 203.50,849.60 ZM 317.95 848.03 C310.61,849.09 258.68,849.35 257.67,848.33 C257.30,847.97 257.00,827.04 257.00,801.83 L 257.00 756.00 L 284.25 756.02 C313.11,756.04 319.47,756.73 331.44,761.18 C338.90,763.95 347.51,772.25 351.61,780.61 C354.28,786.06 354.52,787.51 354.83,799.93 C355.21,815.17 353.98,820.90 348.50,829.53 C341.84,840.01 331.95,846.00 317.95,848.03 ZM 450.79 839.08 L 450.50 848.50 L 410.93 848.76 C389.16,848.91 371.05,848.72 370.68,848.34 C370.31,847.97 370.00,827.04 370.00,801.83 L 370.00 756.00 L 450.07 756.00 L 449.78 766.25 L 449.50 776.50 L 423.71 776.77 L 397.92 777.03 L 398.21 784.77 L 398.50 792.50 L 441.50 793.50 L 441.50 810.50 L 419.75 810.77 L 398.00 811.04 L 398.00 828.00 L 423.25 828.02 C437.14,828.02 449.08,828.40 449.79,828.85 C450.73,829.44 451.00,832.22 450.79,839.08 ZM 113.97 848.50 C105.38,850.37 84.31,851.23 75.50,850.07 C52.77,847.08 40.22,835.95 35.48,814.59 C31.17,795.13 38.21,771.90 50.84,763.89 C60.86,757.53 74.55,754.06 89.75,754.02 C97.28,754.00 114.23,756.52 117.18,758.10 C118.11,758.59 119.80,759.00 120.93,759.00 C122.90,759.00 123.00,759.55 123.00,770.12 L 123.00 781.23 L 120.25 780.61 C106.29,777.45 100.72,776.80 91.00,777.21 C79.38,777.69 75.04,779.16 70.04,784.27 C65.82,788.58 64.51,793.15 64.51,803.50 C64.51,810.94 64.91,813.24 66.78,816.76 C69.64,822.13 75.54,826.45 82.17,828.04 C88.64,829.59 105.40,828.73 113.00,826.45 C116.03,825.55 119.74,824.58 121.25,824.29 L 124.00 823.77 L 124.00 834.26 C124.00,841.57 123.61,845.08 122.72,845.82 C122.01,846.40 118.08,847.61 113.97,848.50 ZM 180.22 829.00 C186.89,830.41 198.14,829.48 202.74,827.13 C211.02,822.91 214.22,816.21 214.27,803.00 C214.31,789.24 210.01,780.71 201.32,777.36 C194.67,774.79 180.89,774.81 176.00,777.38 C169.91,780.59 167.06,784.07 164.97,790.82 C162.58,798.57 162.46,805.82 164.61,813.07 C167.35,822.31 172.25,827.31 180.22,829.00 ZM 284.49 826.83 C284.91,827.92 287.62,828.12 297.76,827.82 C309.26,827.47 310.99,827.17 315.50,824.75 C318.25,823.28 321.31,820.94 322.29,819.54 C329.14,809.86 328.36,792.27 320.72,784.26 C315.71,779.01 310.29,777.50 296.50,777.50 L 284.50 777.50 L 284.23 801.48 C284.08,814.67 284.20,826.08 284.49,826.83 Z" fill="rgb(54,54,54)"/>
<path d="M 357.00 591.33 C357.00,590.50 355.42,586.23 353.49,581.84 C351.56,577.44 350.20,573.48 350.47,573.04 C351.15,571.95 345.00,559.67 341.49,554.52 C343.05,556.54 344.55,559.17 346.44,563.00 C348.75,567.67 351.15,572.40 351.78,573.50 C354.68,578.59 360.04,592.45 359.58,593.66 C359.16,594.73 353.97,594.99 333.28,594.96 L 307.50 594.93 L 301.26 591.13 C297.83,589.04 294.23,586.65 293.26,585.82 C292.52,585.19 288.87,582.78 284.49,579.97 C289.59,583.10 293.88,585.51 294.57,585.61 C295.39,585.73 298.19,587.17 300.78,588.80 C303.38,590.43 306.08,591.93 306.78,592.13 C307.48,592.33 319.07,592.57 332.53,592.67 C353.71,592.81 357.00,592.63 357.00,591.33 ZM 726.33 591.48 C727.89,591.23 730.44,590.11 731.99,589.01 C733.54,587.90 735.53,587.00 736.42,587.00 C737.61,587.00 741.12,585.08 747.98,580.64 C738.01,587.15 728.78,592.87 726.70,593.78 C722.35,595.68 673.66,595.50 672.06,593.57 C670.81,592.06 672.92,586.32 680.55,570.50 C685.00,561.28 687.40,557.15 692.10,553.38 C687.28,557.26 684.83,561.57 680.11,571.50 C674.48,583.33 673.42,586.76 673.89,591.65 C673.97,592.50 680.51,592.69 698.75,592.38 C712.36,592.14 724.78,591.74 726.33,591.48 ZM 641.67 707.83 C636.87,707.26 629.51,706.47 624.50,706.01 C619.00,705.50 609.78,704.35 604.00,703.45 C598.22,702.56 589.90,701.45 585.50,700.99 C581.32,700.55 575.02,699.76 571.10,699.19 C574.35,699.38 576.32,699.58 577.03,699.82 C578.96,700.45 586.74,701.09 594.31,701.24 C602.02,701.38 608.39,701.94 608.79,702.50 C609.18,703.05 612.33,703.50 615.79,703.50 C619.24,703.50 622.39,703.99 622.79,704.59 C623.18,705.19 628.45,706.25 634.50,706.94 C636.80,707.21 639.29,707.52 641.67,707.83 ZM 772.89 710.80 C737.67,711.16 670.71,710.86 661.50,709.99 C660.38,709.89 659.15,709.76 657.85,709.63 C678.69,710.40 740.08,710.96 772.89,710.80 ZM 632.66 632.82 C646.96,637.16 649.48,637.86 653.00,638.48 C654.92,638.83 658.08,639.71 660.00,640.45 C661.26,640.94 664.10,641.88 667.31,642.90 C664.26,642.11 661.09,641.44 658.96,641.15 C655.57,640.68 652.51,639.88 652.15,639.35 C651.79,638.83 648.58,637.56 645.00,636.54 C641.80,635.62 636.54,634.04 632.66,632.82 ZM 494.38 698.17 C471.71,698.47 461.35,699.50 439.83,702.73 C461.17,699.46 471.87,698.37 494.38,698.17 ZM 340.81 710.03 C297.30,710.49 239.84,710.54 239.38,709.81 C239.90,710.52 297.36,710.47 340.81,710.03 ZM 786.47 695.92 C791.60,704.26 794.68,709.71 794.41,710.14 C794.40,710.17 794.31,710.20 794.16,710.22 C794.44,709.52 791.71,704.47 786.47,695.92 ZM 266.28 568.85 C263.66,567.51 246.74,557.12 234.12,549.19 C245.93,556.60 261.36,566.07 266.28,568.85 ZM 725.34 659.18 C729.97,660.36 734.59,661.65 737.39,662.56 C737.97,662.75 738.64,662.96 739.39,663.19 C737.41,662.62 735.71,662.11 734.45,661.72 C731.96,660.95 728.59,660.02 725.34,659.18 ZM 692.18 650.41 L 692.50 650.51 C695.22,651.28 698.78,652.35 701.21,653.11 C698.02,652.20 694.90,651.27 692.18,650.41 ZM 392.48 708.51 C397.82,707.91 405.31,707.09 411.50,706.42 C412.58,706.30 413.70,706.18 414.85,706.05 C409.18,706.70 402.02,707.48 392.48,708.51 ZM 712.86 656.22 C714.59,656.63 716.39,657.05 718.13,657.44 C718.82,657.59 719.53,657.76 720.27,657.93 C719.62,657.78 719.01,657.65 718.45,657.52 C716.85,657.18 714.94,656.73 712.86,656.22 ZM 338.48 551.40 C337.30,550.52 335.96,549.61 335.00,549.05 C336.33,549.82 337.46,550.57 338.48,551.40 ZM 217.16 538.23 C215.11,536.90 213.50,535.90 213.00,535.67 C212.18,535.29 208.35,532.99 204.50,530.56 C208.35,532.99 212.18,535.29 213.00,535.66 C213.54,535.91 215.17,536.92 217.16,538.23 ZM 619.78 629.49 C617.58,629.16 616.02,628.86 614.97,628.47 C615.96,628.83 617.40,629.11 619.39,629.42 C619.61,629.45 619.86,629.49 620.13,629.55 C620.01,629.53 619.89,629.51 619.78,629.49 ZM 769.53 671.34 L 771.05 671.73 L 771.06 671.75 Z" fill="rgb(117,117,117)"/>
<path d="M 388.00 709.02 C389.17,708.88 390.71,708.71 392.48,708.51 C402.02,707.48 409.18,706.70 414.84,706.05 L 414.85 706.05 C418.03,705.69 421.40,705.28 424.57,704.89 C420.15,705.45 415.42,706.02 411.50,706.45 C403.80,707.30 392.77,708.51 387.00,709.16 C381.23,709.80 376.07,710.70 375.55,711.16 C375.03,711.62 343.64,712.00 305.80,712.00 C238.25,712.00 237.00,711.96 237.00,710.05 C237.00,708.98 237.65,707.73 238.45,707.29 C239.47,706.72 245.41,698.48 251.17,689.93 C250.24,691.33 249.31,692.71 248.43,694.00 C240.32,705.90 238.71,708.72 239.38,709.81 L 239.38 709.81 C239.47,709.95 241.69,710.06 245.52,710.15 C261.51,710.51 305.64,710.40 340.73,710.03 L 340.81 710.03 C364.73,709.79 384.40,709.43 388.00,709.02 ZM 606.98 306.75 C606.99,307.99 606.55,309.00 606.00,309.00 C604.75,309.00 604.75,307.94 606.00,306.00 C606.78,304.79 606.97,304.93 606.98,306.75 ZM 258.29 678.98 C258.67,678.39 259.02,677.81 259.36,677.25 C261.04,674.47 262.40,672.65 263.65,671.57 C262.40,672.65 261.05,674.47 259.36,677.25 C259.06,677.75 258.70,678.33 258.29,678.98 Z" fill="rgb(168,169,168)"/>
<path d="M 516.63 269.25 C515.33,273.28 513.10,270.71 509.06,260.54 C503.21,245.81 489.90,222.24 483.73,215.68 C474.03,205.38 469.41,200.86 465.08,197.45 C462.33,195.28 460.06,192.75 460.04,191.84 C460.02,190.92 461.79,188.86 463.97,187.25 C469.05,183.52 479.39,174.51 483.78,170.00 C494.96,158.50 506.59,139.79 512.05,124.50 C513.03,121.75 514.55,119.35 515.42,119.18 C516.29,119.00 517.00,119.33 517.00,119.90 C517.00,122.85 532.00,150.83 537.54,158.21 C545.26,168.50 557.52,181.17 565.22,186.82 C568.52,189.24 570.71,191.54 570.40,192.26 C570.10,192.94 566.93,195.75 563.36,198.50 C557.36,203.11 552.06,208.32 546.16,215.41 C536.71,226.76 521.22,255.01 516.63,269.25 ZM 512.22 262.75 C514.47,265.49 516.54,263.96 519.70,257.25 C521.45,253.54 523.47,248.71 524.19,246.52 C524.91,244.33 526.33,241.71 527.34,240.68 C528.35,239.66 529.81,237.40 530.58,235.66 C531.36,233.92 535.62,226.88 540.06,220.00 C547.39,208.63 553.89,201.14 556.50,201.04 C558.31,200.97 566.00,193.49 566.00,191.79 C566.00,190.88 565.10,189.85 563.99,189.50 C562.88,189.15 561.32,187.58 560.51,186.01 C559.61,184.27 557.67,182.71 555.52,182.01 C553.58,181.37 552.00,180.39 552.00,179.84 C552.00,179.29 548.74,175.09 544.75,170.51 C533.48,157.57 527.80,148.99 525.10,140.81 C524.43,138.78 522.91,135.89 521.73,134.38 C520.54,132.87 518.88,130.28 518.03,128.63 C517.19,126.97 516.00,125.46 515.39,125.27 C514.77,125.08 511.02,131.51 507.04,139.56 C502.36,149.03 498.38,155.66 495.76,158.35 C493.53,160.63 491.13,163.85 490.42,165.50 C488.86,169.13 486.38,171.66 478.50,177.63 C470.29,183.87 464.02,190.16 464.01,192.18 C464.00,193.11 466.76,196.26 470.14,199.18 C477.51,205.57 485.34,214.87 491.76,224.88 C494.37,228.94 498.86,235.82 501.75,240.17 C504.64,244.52 507.00,248.93 507.00,249.98 C507.00,251.03 507.44,252.15 507.97,252.48 C508.51,252.81 509.45,254.98 510.07,257.29 C510.69,259.61 511.66,262.06 512.22,262.75 ZM 421.97 304.75 C421.99,305.99 421.44,306.99 420.75,306.98 C419.44,306.95 397.76,288.78 387.50,279.10 C384.20,275.99 378.15,270.53 374.06,266.97 C369.97,263.41 365.89,259.83 364.99,259.00 C364.09,258.17 360.03,254.57 355.96,251.00 C346.40,242.60 345.00,241.20 345.00,240.06 C345.00,239.54 347.31,237.17 350.14,234.81 C352.97,232.44 359.10,227.01 363.76,222.75 C368.42,218.49 372.98,215.00 373.90,215.00 C375.40,215.00 380.39,222.60 388.04,236.50 C389.24,238.70 391.01,241.62 391.95,243.00 C392.90,244.38 395.51,248.88 397.76,253.00 C400.00,257.12 403.47,263.42 405.47,267.00 C407.47,270.58 409.79,275.08 410.64,277.00 C413.19,282.84 417.12,291.40 418.09,293.24 C418.59,294.19 419.00,295.79 419.00,296.80 C419.00,297.80 419.66,299.49 420.47,300.56 C421.28,301.63 421.95,303.51 421.97,304.75 ZM 606.98 306.75 C606.97,304.93 606.78,304.79 606.00,306.00 C605.97,306.05 605.94,306.09 605.91,306.13 C607.61,302.22 611.27,294.45 613.33,290.50 C614.48,288.30 618.14,281.26 621.46,274.87 C624.78,268.47 630.09,258.79 633.26,253.37 C636.42,247.94 640.14,241.57 641.52,239.21 C647.25,229.37 657.01,215.00 657.96,215.00 C659.14,215.00 662.17,217.42 669.96,224.59 C673.01,227.39 678.09,231.57 681.26,233.88 C687.57,238.48 687.76,239.96 682.50,243.41 C677.30,246.81 644.70,275.23 624.66,293.82 C620.32,297.84 614.54,302.90 611.80,305.07 C609.36,306.99 607.60,308.20 606.48,308.72 C606.78,308.34 606.99,307.60 606.98,306.75 ZM 411.00 297.31 C412.92,298.78 414.84,299.98 415.25,299.99 C417.24,300.02 414.73,288.04 412.48,286.75 C411.76,286.34 410.87,284.09 410.50,281.75 C410.13,279.41 408.29,275.14 406.41,272.27 C404.54,269.39 403.00,266.73 403.00,266.36 C403.00,265.99 401.86,264.20 400.47,262.37 C399.08,260.55 396.57,256.01 394.90,252.28 C393.23,248.55 391.27,244.83 390.55,244.00 C389.83,243.18 387.59,239.27 385.56,235.33 C383.54,231.38 381.21,227.59 380.39,226.90 C379.56,226.22 378.28,224.20 377.53,222.43 C375.56,217.70 372.23,217.00 369.04,220.64 C367.64,222.25 364.88,224.75 362.90,226.21 C356.93,230.62 348.00,239.12 348.00,240.39 C348.00,241.05 350.64,243.82 353.86,246.54 C364.45,255.50 384.85,273.69 399.50,287.24 C403.90,291.31 409.08,295.84 411.00,297.31 ZM 610.00 301.79 C610.00,302.45 610.36,303.00 610.79,303.00 C612.14,303.00 626.29,290.29 644.57,272.66 C650.18,267.24 656.33,261.84 658.23,260.66 C662.95,257.71 673.00,249.68 673.00,248.86 C673.00,248.49 675.25,246.57 678.00,244.60 C680.93,242.49 683.00,240.23 683.00,239.13 C683.00,238.05 681.26,236.11 678.86,234.53 C674.38,231.56 669.89,227.63 664.26,221.75 C659.27,216.53 657.11,216.82 653.34,223.25 C651.65,226.14 646.98,233.90 642.95,240.50 C638.93,247.10 634.36,254.98 632.79,258.00 C631.23,261.02 628.83,265.03 627.47,266.90 C626.11,268.77 625.00,271.39 625.00,272.73 C625.00,274.07 623.52,277.04 621.70,279.33 C618.34,283.58 610.00,299.59 610.00,301.79 ZM 751.63 328.38 C747.85,329.82 744.01,331.00 743.10,331.00 C741.58,331.00 738.57,328.15 727.65,316.36 L 723.82 312.23 L 731.04 306.36 C741.56,297.82 750.40,289.09 753.34,284.33 C757.72,277.25 758.88,277.52 764.19,286.87 C768.68,294.76 775.59,302.90 781.72,307.55 C784.60,309.72 786.96,312.25 786.97,313.18 C787.01,315.49 775.37,320.98 763.00,324.48 C760.53,325.18 755.41,326.94 751.63,328.38 ZM 295.48 321.21 C290.71,325.77 286.29,329.79 285.66,330.15 C285.02,330.51 279.88,329.29 274.23,327.44 C268.58,325.59 260.70,323.10 256.73,321.92 C249.41,319.75 242.00,316.45 242.00,315.37 C242.00,315.05 244.28,312.29 247.06,309.24 C254.56,301.04 264.44,288.09 266.89,283.25 C268.07,280.91 269.69,279.00 270.49,279.00 C271.29,279.00 273.49,281.36 275.38,284.25 C280.46,292.02 283.51,295.13 293.92,303.20 C299.10,307.21 303.52,311.04 303.74,311.71 C303.96,312.37 300.24,316.65 295.48,321.21 ZM 736.07 323.24 C739.47,326.70 742.59,329.00 743.87,329.00 C745.05,329.00 748.34,327.88 751.19,326.50 C754.04,325.12 757.18,324.00 758.17,324.00 C760.55,324.00 768.00,320.99 768.00,320.02 C768.00,319.61 769.74,319.03 771.86,318.75 C773.98,318.46 777.36,317.45 779.36,316.50 C784.59,314.02 784.31,310.99 778.53,307.33 C776.07,305.77 773.80,303.72 773.47,302.78 C773.15,301.83 771.33,299.59 769.44,297.81 C767.55,296.02 766.00,294.20 766.00,293.76 C766.00,293.32 764.87,291.17 763.49,288.98 C761.48,285.81 760.38,285.00 758.02,285.00 C756.17,285.00 754.70,285.69 754.08,286.85 C751.73,291.24 745.47,297.57 737.98,303.14 C729.99,309.07 729.93,309.15 730.17,313.30 C730.38,316.88 731.22,318.29 736.07,323.24 ZM 272.50 325.34 C275.25,326.18 279.72,326.90 282.44,326.94 C287.26,327.00 287.53,326.84 293.69,320.34 C297.16,316.67 300.00,312.92 300.00,312.00 C300.00,310.54 293.55,304.73 285.11,298.60 C283.68,297.55 280.09,293.84 277.14,290.35 C274.19,286.86 271.21,284.00 270.52,284.00 C269.83,284.00 268.20,285.53 266.89,287.40 C263.05,292.85 249.75,309.00 249.09,309.00 C248.75,309.00 247.90,309.93 247.19,311.06 C245.31,314.08 246.59,316.75 250.30,317.55 C252.06,317.92 256.65,319.48 260.50,321.02 C264.35,322.55 269.75,324.49 272.50,325.34 ZM 984.25 848.43 C979.75,849.15 911.04,849.94 909.25,849.29 C908.27,848.93 908.00,838.64 908.00,802.41 L 908.00 755.98 L 988.50 756.50 L 988.50 776.50 L 937.50 777.50 L 937.20 784.23 L 936.91 790.96 L 940.20 792.40 L 943.50 793.84 L 940.37 793.92 C935.73,794.04 934.87,792.27 935.21,783.34 L 935.50 775.50 L 960.00 775.00 C973.47,774.72 985.06,774.14 985.75,773.69 C987.57,772.51 987.42,760.59 985.57,759.06 C984.53,758.19 974.65,757.86 949.19,757.83 C929.98,757.80 913.35,758.07 912.25,758.42 C911.03,758.81 909.99,760.28 909.62,762.15 C908.60,767.25 908.93,844.34 909.98,846.00 C910.80,847.29 915.76,847.47 946.21,847.26 C965.62,847.13 982.74,846.75 984.25,846.43 C986.90,845.86 987.00,845.61 987.00,839.48 L 987.00 839.22 C987.00,836.13 987.00,834.08 986.03,832.71 C984.11,830.00 978.36,830.00 961.18,830.00 L 960.47 830.00 C943.13,830.00 937.97,829.70 936.47,828.60 C934.83,827.40 934.59,826.09 934.79,819.39 C934.92,815.09 935.45,811.15 935.98,810.62 C936.51,810.09 946.02,809.63 957.71,809.59 L 978.50 809.50 L 978.79 802.24 C979.08,795.22 979.00,794.95 976.48,793.99 C975.04,793.45 971.09,792.92 967.68,792.83 C962.98,792.70 962.46,792.57 965.50,792.25 C967.70,792.03 971.88,792.14 974.79,792.50 L 980.08 793.15 L 979.79 801.83 L 979.50 810.50 L 957.75 810.77 L 936.00 811.04 L 936.00 828.00 L 943.25 828.07 C947.24,828.11 957.70,828.34 966.50,828.58 C975.30,828.83 983.74,829.02 985.25,829.01 L 988.00 829.00 L 988.00 847.82 ZM 782.23 848.17 C781.04,849.36 758.12,850.13 753.57,849.14 C751.38,848.66 749.45,846.76 746.00,841.70 C743.45,837.97 740.61,834.03 739.69,832.96 C738.78,831.88 736.38,828.53 734.37,825.50 C732.36,822.48 730.33,820.00 729.86,820.00 C729.39,820.00 729.00,819.55 729.00,819.00 C729.00,816.08 732.18,819.38 739.81,830.22 C745.80,838.73 750.28,844.49 751.82,845.66 C754.37,847.59 777.59,847.51 778.34,845.56 C778.66,844.73 776.74,841.44 773.82,837.81 C764.67,826.41 758.00,817.04 758.00,815.58 C758.00,814.79 760.56,812.19 763.69,809.81 C772.29,803.28 774.50,798.26 774.50,785.27 C774.50,779.62 774.79,775.00 775.13,775.00 C777.54,775.00 777.63,791.77 775.26,798.38 C773.96,802.00 771.74,804.90 766.68,809.59 C761.91,814.01 760.10,816.32 760.68,817.25 C761.13,817.99 764.88,822.97 769.00,828.34 C782.92,846.42 783.34,847.06 782.23,848.17 ZM 686.76 758.84 C686.35,759.25 685.90,778.46 685.75,801.54 L 685.48 843.50 L 685.24 799.75 L 685.00 756.00 L 714.75 756.01 C747.28,756.02 754.99,756.78 762.26,760.74 C769.22,764.53 777.61,774.00 774.00,774.00 C773.45,774.00 773.00,773.66 773.00,773.25 C773.00,770.42 760.97,760.83 754.91,758.82 C751.09,757.56 688.04,757.58 686.76,758.84 ZM 826.02 782.28 C824.20,784.05 821.87,787.30 820.85,789.50 L 818.98 793.50 L 819.54 789.70 C819.96,786.92 821.21,784.90 824.20,782.20 C831.78,775.33 834.68,774.50 851.00,774.50 C859.35,774.50 868.56,775.10 872.71,775.90 C881.93,777.70 883.00,776.99 883.00,769.10 C883.00,761.23 881.51,759.50 873.09,757.59 C865.91,755.96 839.23,755.22 829.50,756.38 C825.04,756.92 824.82,756.86 827.50,755.86 C829.25,755.20 837.81,754.69 848.00,754.62 C861.81,754.53 867.12,754.89 873.17,756.34 C884.18,758.96 884.18,758.96 884.35,769.73 C884.43,774.74 884.28,779.05 884.00,779.31 C883.72,779.58 880.12,778.88 876.00,777.77 C870.25,776.22 865.11,775.72 854.00,775.62 C837.37,775.48 831.57,776.86 826.02,782.28 ZM 539.79 813.63 C538.22,814.60 497.00,814.73 497.00,813.77 C497.00,812.22 502.33,811.88 519.71,812.32 C529.62,812.58 538.18,812.50 538.74,812.14 C539.30,811.79 539.69,807.93 539.62,803.50 L 539.50 795.50 L 518.55 795.23 C503.31,795.03 497.38,794.62 496.81,793.73 C496.38,793.05 496.10,789.35 496.20,785.50 L 496.36 778.50 L 496.93 786.00 L 497.50 793.50 L 519.00 794.05 C530.83,794.35 540.61,794.69 540.75,794.80 C540.89,794.91 541.00,799.02 541.00,803.94 C541.00,809.87 540.59,813.13 539.79,813.63 ZM 548.79 766.25 L 549.07 776.00 L 545.29 775.88 C543.12,775.82 542.36,775.56 543.50,775.28 C547.19,774.37 548.00,772.89 548.00,767.03 C548.00,766.62 548.00,766.23 548.01,765.85 C548.03,763.74 548.04,762.20 547.37,761.07 C545.46,757.89 538.05,757.99 509.67,757.55 L 474.90 757.01 L 472.45 759.46 L 470.00 761.91 L 470.00 755.98 L 548.50 756.50 ZM 667.57 783.41 C668.76,788.17 666.54,785.96 663.01,778.88 C658.94,770.70 653.47,765.32 645.29,761.46 C642.11,759.96 638.68,758.31 637.68,757.81 C634.21,756.06 612.90,754.88 602.50,755.85 C597.00,756.37 592.36,756.66 592.18,756.49 C592.01,756.33 594.17,755.70 596.98,755.10 C603.58,753.68 623.46,753.68 631.92,755.10 C639.82,756.43 650.95,761.52 656.65,766.42 C660.83,770.01 666.37,778.62 667.57,783.41 ZM 620.00 831.11 C618.08,831.67 616.05,832.28 615.50,832.46 C612.82,833.33 599.93,829.11 596.18,826.14 C592.01,822.84 588.00,815.99 588.00,812.18 C588.00,808.52 589.49,809.74 590.92,814.58 C593.81,824.39 600.95,829.17 612.93,829.32 C622.35,829.44 627.97,827.84 632.67,823.72 C636.53,820.33 639.86,814.16 640.09,810.00 C640.20,808.09 640.35,807.94 640.71,809.37 C640.98,810.40 640.64,813.20 639.97,815.60 C638.54,820.70 630.82,828.58 626.34,829.50 C624.78,829.83 621.92,830.55 620.00,831.11 ZM 743.77 797.92 C742.93,798.70 742.34,799.29 741.65,799.73 C739.52,801.06 736.44,800.89 722.41,800.11 L 720.50 800.00 L 711.50 799.50 L 711.22 788.08 C711.06,781.81 711.35,776.25 711.86,775.74 C712.37,775.23 718.79,774.75 726.14,774.66 C740.38,774.49 744.63,775.57 746.97,779.94 C748.91,783.57 748.00,784.30 745.74,780.94 C744.50,779.09 742.36,777.27 740.99,776.89 C739.62,776.51 732.77,776.15 725.77,776.10 C724.88,776.09 724.04,776.08 723.26,776.07 C717.42,776.01 714.53,775.97 713.16,777.40 C711.81,778.79 711.92,781.57 712.12,787.08 C712.15,787.83 712.18,788.64 712.21,789.50 L 712.50 798.50 L 726.18 798.78 L 739.87 799.06 L 743.43 795.92 C745.75,793.89 747.03,791.87 747.08,790.15 C747.12,788.69 747.39,788.08 747.68,788.79 C748.62,791.15 747.03,794.87 743.77,797.92 ZM 498.00 832.88 C498.00,843.65 497.65,848.00 496.75,848.63 C496.06,849.11 489.76,849.37 482.75,849.22 L 470.00 848.94 L 470.03 846.22 C470.06,843.89 470.21,843.75 471.08,845.25 C471.96,846.76 473.72,847.00 484.05,847.00 L 496.00 847.00 L 496.00 832.50 C496.00,823.50 496.38,818.00 497.00,818.00 C497.62,818.00 498.00,823.63 498.00,832.88 ZM 713.00 833.25 L 712.50 848.50 L 698.75 848.78 C685.02,849.06 685.00,849.05 685.02,846.78 C685.03,844.95 685.22,844.80 685.98,846.00 C687.23,847.97 707.28,848.11 709.24,846.16 C710.07,845.34 710.67,840.41 711.00,831.78 C711.28,824.38 711.94,818.52 712.50,818.33 C713.15,818.11 713.33,823.30 713.00,833.25 ZM 881.44 847.48 C873.40,849.58 865.00,850.52 865.00,849.31 C865.00,848.78 868.64,847.79 873.10,847.11 C877.55,846.42 882.26,845.38 883.55,844.80 C886.50,843.45 888.00,839.25 888.00,832.35 C888.00,829.41 888.45,827.00 889.00,827.00 C890.56,827.00 890.28,843.52 888.69,844.84 C887.97,845.44 884.71,846.62 881.44,847.48 ZM 845.00 812.11 C845.00,813.64 842.25,813.08 841.61,811.42 C841.27,810.55 841.00,806.50 841.00,802.42 L 841.00 795.00 L 845.75 795.15 C849.11,795.26 849.62,795.42 847.50,795.73 C845.85,795.96 844.07,796.57 843.54,797.08 C841.96,798.62 842.03,810.08 843.63,810.69 C844.38,810.98 845.00,811.62 845.00,812.11 ZM 605.06 308.24 C605.06,308.67 605.29,308.92 605.75,308.98 C605.25,309.09 605.00,308.92 605.00,308.48 C605.00,308.44 605.02,308.36 605.06,308.24 Z" fill="rgb(226,142,93)"/>
<path d="M 636.50 848.65 C630.16,850.36 607.50,851.17 599.11,849.99 C592.23,849.02 579.70,843.61 574.81,839.50 C570.56,835.92 565.06,827.55 562.69,821.07 C559.86,813.34 559.25,796.93 561.43,787.58 C564.42,774.78 571.37,765.75 582.56,760.12 C585.88,758.44 589.14,757.17 592.63,756.22 C592.29,756.35 592.13,756.44 592.18,756.49 C592.36,756.66 597.00,756.37 602.50,755.85 C612.90,754.88 634.21,756.06 637.68,757.81 C638.68,758.31 642.11,759.96 645.29,761.46 C653.47,765.32 658.94,770.70 663.01,778.88 C665.63,784.14 667.54,786.72 667.85,785.73 C668.23,788.20 668.42,791.44 668.67,796.69 C669.63,816.76 667.72,824.02 658.50,835.34 C653.51,841.47 645.78,846.14 636.50,848.65 ZM 686.76 758.84 C688.04,757.58 751.09,757.56 754.91,758.82 C760.97,760.83 773.00,770.42 773.00,773.25 C773.00,773.66 773.45,774.00 774.00,774.00 C774.50,774.00 774.77,773.82 774.85,773.49 C775.07,774.02 775.28,774.56 775.47,775.11 C775.36,775.04 775.25,775.00 775.13,775.00 C774.79,775.00 774.50,779.62 774.50,785.27 C774.50,798.26 772.29,803.28 763.69,809.81 C760.56,812.19 758.00,814.79 758.00,815.58 C758.00,817.04 764.67,826.41 773.82,837.81 C776.74,841.44 778.66,844.73 778.34,845.56 C777.59,847.51 754.37,847.59 751.82,845.66 C750.28,844.49 745.80,838.73 739.81,830.22 C732.18,819.38 729.00,816.08 729.00,819.00 C729.00,819.55 729.39,820.00 729.86,820.00 C730.18,820.00 731.22,821.14 732.48,822.82 C729.64,819.21 727.78,819.00 720.84,819.00 L 713.05 819.00 L 713.03 820.31 C712.92,818.92 712.74,818.25 712.50,818.33 C711.94,818.52 711.28,824.38 711.00,831.78 C710.67,840.41 710.07,845.34 709.24,846.16 C707.28,848.11 687.23,847.97 685.98,846.00 C685.22,844.80 685.03,844.95 685.02,846.78 C685.00,849.05 685.02,849.06 698.66,848.78 L 685.00 849.06 L 685.00 756.00 L 685.24 799.75 L 685.48 843.50 L 685.75 801.54 C685.90,778.46 686.35,759.25 686.76,758.84 ZM 512.22 262.75 C511.66,262.06 510.69,259.61 510.07,257.29 C509.45,254.98 508.51,252.81 507.97,252.48 C507.44,252.15 507.00,251.03 507.00,249.98 C507.00,248.93 504.64,244.52 501.75,240.17 C498.86,235.82 494.37,228.94 491.76,224.88 C485.34,214.87 477.51,205.57 470.14,199.18 C466.76,196.26 464.00,193.11 464.01,192.18 C464.02,190.16 470.29,183.87 478.50,177.63 C486.38,171.66 488.86,169.13 490.42,165.50 C491.13,163.85 493.53,160.63 495.76,158.35 C498.38,155.66 502.36,149.03 507.04,139.56 C511.02,131.51 514.77,125.08 515.39,125.27 C516.00,125.46 517.19,126.97 518.03,128.63 C518.88,130.28 520.54,132.87 521.73,134.38 C522.91,135.89 524.43,138.78 525.10,140.81 C527.80,148.99 533.48,157.57 544.75,170.51 C548.74,175.09 552.00,179.29 552.00,179.84 C552.00,180.39 553.58,181.37 555.52,182.01 C557.67,182.71 559.61,184.27 560.51,186.01 C561.32,187.58 562.88,189.15 563.99,189.50 C565.10,189.85 566.00,190.88 566.00,191.79 C566.00,193.49 558.31,200.97 556.50,201.04 C553.89,201.14 547.39,208.63 540.06,220.00 C535.62,226.88 531.36,233.92 530.58,235.66 C529.81,237.40 528.35,239.66 527.34,240.68 C526.33,241.71 524.91,244.33 524.19,246.52 C523.47,248.71 521.45,253.54 519.70,257.25 C516.54,263.96 514.47,265.49 512.22,262.75 ZM 845.00 812.11 C845.00,811.62 844.38,810.98 843.63,810.69 C842.03,810.08 841.96,798.62 843.54,797.08 C844.07,796.57 845.85,795.96 847.50,795.73 C849.62,795.42 849.11,795.26 845.75,795.15 L 841.00 795.00 L 857.25 794.94 C866.19,794.90 876.80,794.78 880.84,794.67 C886.57,794.51 888.33,794.79 888.88,795.98 C889.27,796.82 889.57,808.07 889.55,820.98 L 889.53 827.82 C889.39,827.30 889.21,827.00 889.00,827.00 C888.45,827.00 888.00,829.41 888.00,832.35 C888.00,839.25 886.50,843.45 883.55,844.80 C882.26,845.38 877.55,846.42 873.10,847.11 C868.64,847.79 865.00,848.78 865.00,849.31 C865.00,849.48 865.16,849.61 865.47,849.69 C853.52,850.52 837.41,850.81 831.50,850.05 C812.75,847.63 800.08,838.45 793.55,822.54 C790.07,814.06 789.83,793.38 793.11,784.00 C797.36,771.81 807.58,761.85 818.69,759.06 C821.32,758.39 823.98,757.43 824.59,756.92 C825.04,756.55 826.04,756.20 827.46,755.87 C824.82,756.86 825.06,756.91 829.50,756.38 C839.23,755.22 865.91,755.96 873.09,757.59 C881.51,759.50 883.00,761.23 883.00,769.10 C883.00,776.99 881.93,777.70 872.71,775.90 C868.56,775.10 859.35,774.50 851.00,774.50 C834.68,774.50 831.78,775.33 824.20,782.20 C821.21,784.90 819.96,786.92 819.54,789.70 L 818.98 793.50 L 820.85 789.50 C821.16,788.82 821.60,788.05 822.11,787.25 C819.85,791.32 818.72,796.40 818.73,802.50 C818.74,816.87 821.89,823.15 831.35,827.67 C836.73,830.24 838.26,830.50 847.89,830.46 C862.37,830.41 863.00,830.00 863.00,820.46 L 863.00 813.00 L 852.61 813.00 C852.15,813.00 851.71,813.00 851.29,813.00 C848.32,813.01 846.21,813.01 844.71,812.79 C844.89,812.64 845.00,812.42 845.00,812.11 ZM 964.06 792.43 C962.86,792.62 963.97,792.73 967.68,792.83 C971.09,792.92 975.04,793.45 976.48,793.99 C979.00,794.95 979.08,795.22 978.79,802.24 L 978.50 809.50 L 957.71 809.59 C946.02,809.63 936.51,810.09 935.98,810.62 C935.45,811.15 934.92,815.09 934.79,819.39 C934.59,826.09 934.83,827.40 936.47,828.60 C937.97,829.70 943.13,830.00 960.47,830.00 L 961.18 830.00 C978.36,830.00 984.11,830.00 986.03,832.71 C987.00,834.08 987.00,836.13 987.00,839.22 L 987.00 839.48 C987.00,845.61 986.90,845.86 984.25,846.43 C982.74,846.75 965.62,847.13 946.21,847.26 C915.76,847.47 910.80,847.29 909.98,846.00 C908.93,844.34 908.60,767.25 909.62,762.15 C909.99,760.28 911.03,758.81 912.25,758.42 C913.35,758.07 929.98,757.80 949.19,757.83 C974.65,757.86 984.53,758.19 985.57,759.06 C987.42,760.59 987.57,772.51 985.75,773.69 C985.06,774.14 973.47,774.72 960.00,775.00 L 935.50 775.50 L 935.21 783.34 C934.87,792.27 935.73,794.04 940.37,793.92 L 943.50 793.84 L 940.20 792.40 L 936.91 790.96 L 937.20 784.26 C936.92,790.84 936.98,791.04 939.70,792.12 C941.56,792.85 947.55,793.02 957.50,792.62 C959.72,792.53 961.94,792.47 964.06,792.43 ZM 545.29 775.88 L 549.07 776.00 L 543.79 776.22 C540.88,776.33 529.28,776.45 518.00,776.47 L 497.50 776.50 L 497.50 793.50 L 496.93 786.00 L 496.36 778.50 L 496.20 785.50 C496.10,789.35 496.38,793.05 496.81,793.73 C497.38,794.62 503.31,795.03 518.55,795.23 L 539.50 795.50 L 539.62 803.50 C539.69,807.93 539.30,811.79 538.74,812.14 C538.18,812.50 529.62,812.58 519.71,812.32 C502.33,811.88 497.00,812.22 497.00,813.77 C497.00,814.01 499.64,814.19 503.61,814.30 C500.40,814.43 498.70,814.68 498.48,815.03 C498.19,815.51 497.97,820.55 497.94,827.04 C497.81,821.31 497.48,818.00 497.00,818.00 C496.38,818.00 496.00,823.50 496.00,832.50 L 496.00 847.00 L 484.05 847.00 C473.72,847.00 471.96,846.76 471.08,845.25 C470.21,843.75 470.06,843.89 470.03,846.22 L 470.00 848.94 L 469.97 848.94 L 470.03 802.46 L 470.09 761.82 L 474.90 757.01 L 509.67 757.55 C538.05,757.99 545.46,757.89 547.37,761.07 C548.04,762.20 548.03,763.74 548.01,765.85 C548.00,766.23 548.00,766.62 548.00,767.03 C548.00,772.89 547.19,774.37 543.50,775.28 C542.36,775.56 543.12,775.82 545.29,775.88 ZM 620.00 831.11 C621.92,830.55 624.78,829.83 626.34,829.50 C630.82,828.58 638.54,820.70 639.97,815.60 C640.64,813.20 640.98,810.40 640.71,809.37 C640.35,807.94 640.20,808.09 640.09,810.00 C639.99,811.86 639.27,814.12 638.16,816.35 C639.78,812.68 640.48,808.23 640.44,802.50 C640.30,783.07 632.91,774.99 615.28,775.01 C605.53,775.01 601.52,776.12 596.65,780.14 C591.85,784.09 589.44,789.57 588.56,798.55 C587.97,804.49 588.23,806.57 590.38,812.87 C592.28,818.47 594.46,822.27 597.51,824.85 C594.41,822.43 592.23,819.02 590.92,814.58 C589.49,809.74 588.00,808.52 588.00,812.18 C588.00,815.99 592.01,822.84 596.18,826.14 C599.93,829.11 612.82,833.33 615.50,832.46 C616.05,832.28 618.08,831.67 620.00,831.11 ZM 411.00 297.31 C409.08,295.84 403.90,291.31 399.50,287.24 C384.85,273.69 364.45,255.50 353.86,246.54 C350.64,243.82 348.00,241.05 348.00,240.39 C348.00,239.12 356.93,230.62 362.90,226.21 C364.88,224.75 367.64,222.25 369.04,220.64 C372.23,217.00 375.56,217.70 377.53,222.43 C378.28,224.20 379.56,226.22 380.39,226.90 C381.21,227.59 383.54,231.38 385.56,235.33 C387.59,239.27 389.83,243.18 390.55,244.00 C391.27,244.83 393.23,248.55 394.90,252.28 C396.57,256.01 399.08,260.55 400.47,262.37 C401.86,264.20 403.00,265.99 403.00,266.36 C403.00,266.73 404.54,269.39 406.41,272.27 C408.29,275.14 410.13,279.41 410.50,281.75 C410.87,284.09 411.76,286.34 412.48,286.75 C414.73,288.04 417.24,300.02 415.25,299.99 C414.84,299.98 412.92,298.78 411.00,297.31 ZM 610.00 301.79 C610.00,299.59 618.34,283.58 621.70,279.33 C623.52,277.04 625.00,274.07 625.00,272.73 C625.00,271.39 626.11,268.77 627.47,266.90 C628.83,265.03 631.23,261.02 632.79,258.00 C634.36,254.98 638.93,247.10 642.95,240.50 C646.98,233.90 651.65,226.14 653.34,223.25 C657.11,216.82 659.27,216.53 664.26,221.75 C669.89,227.63 674.38,231.56 678.86,234.53 C681.26,236.11 683.00,238.05 683.00,239.13 C683.00,240.23 680.93,242.49 678.00,244.60 C675.25,246.57 673.00,248.49 673.00,248.86 C673.00,249.68 662.95,257.71 658.23,260.66 C656.33,261.84 650.18,267.24 644.57,272.66 C626.29,290.29 612.14,303.00 610.79,303.00 C610.36,303.00 610.00,302.45 610.00,301.79 ZM 736.07 323.24 C731.22,318.29 730.38,316.88 730.17,313.30 C729.93,309.15 729.99,309.07 737.98,303.14 C745.47,297.57 751.73,291.24 754.08,286.85 C754.70,285.69 756.17,285.00 758.02,285.00 C760.38,285.00 761.48,285.81 763.49,288.98 C764.87,291.17 766.00,293.32 766.00,293.76 C766.00,294.20 767.55,296.02 769.44,297.81 C771.33,299.59 773.15,301.83 773.47,302.78 C773.80,303.72 776.07,305.77 778.53,307.33 C784.31,310.99 784.59,314.02 779.36,316.50 C777.36,317.45 773.98,318.46 771.86,318.75 C769.74,319.03 768.00,319.61 768.00,320.02 C768.00,320.99 760.55,324.00 758.17,324.00 C757.18,324.00 754.04,325.12 751.19,326.50 C748.34,327.88 745.05,329.00 743.87,329.00 C742.59,329.00 739.47,326.70 736.07,323.24 ZM 272.50 325.34 C269.75,324.49 264.35,322.55 260.50,321.02 C256.65,319.48 252.06,317.92 250.30,317.55 C246.59,316.75 245.31,314.08 247.19,311.06 C247.90,309.93 248.75,309.00 249.09,309.00 C249.75,309.00 263.05,292.85 266.89,287.40 C268.20,285.53 269.83,284.00 270.52,284.00 C271.21,284.00 274.19,286.86 277.14,290.35 C280.09,293.84 283.68,297.55 285.11,298.60 C293.55,304.73 300.00,310.54 300.00,312.00 C300.00,312.92 297.16,316.67 293.69,320.34 C287.53,326.84 287.26,327.00 282.44,326.94 C279.72,326.90 275.25,326.18 272.50,325.34 ZM 743.77 797.92 C747.03,794.87 748.62,791.15 747.68,788.79 C747.64,788.70 747.60,788.63 747.57,788.58 C747.99,786.02 747.41,783.42 745.79,781.01 C748.02,784.29 748.89,783.54 746.97,779.94 C744.63,775.57 740.38,774.49 726.14,774.66 C718.79,774.75 712.37,775.23 711.86,775.74 C711.35,776.25 711.06,781.81 711.22,788.08 L 711.50 799.50 L 720.50 800.00 L 722.41 800.11 C736.44,800.89 739.52,801.06 741.65,799.73 C742.34,799.29 742.93,798.70 743.77,797.92 ZM 829.98 755.40 C836.17,754.43 846.36,753.92 855.00,754.34 C856.87,754.43 858.79,754.57 860.69,754.75 C857.37,754.62 853.31,754.58 848.00,754.62 C840.34,754.67 833.60,754.98 829.98,755.40 ZM 633.90 822.53 C633.50,822.95 633.09,823.35 632.67,823.72 C629.66,826.36 626.27,827.96 621.75,828.74 C626.23,827.72 630.25,825.87 633.01,823.37 C633.32,823.09 633.61,822.81 633.90,822.53 ZM 776.99 785.01 C777.00,785.47 777.00,785.94 777.00,786.43 C777.01,791.15 776.58,794.74 775.41,797.93 C776.43,794.74 776.96,789.61 776.99,785.01 ZM 747.05 790.50 C746.85,792.14 745.60,794.03 743.43,795.92 L 741.21 797.87 L 743.45 795.75 C745.17,794.11 746.37,792.33 747.05,790.50 ZM 771.16 767.78 C768.69,765.19 765.33,762.41 762.26,760.74 C760.35,759.70 758.41,758.88 756.01,758.24 C761.77,759.72 765.20,762.15 769.53,766.13 C770.11,766.67 770.65,767.21 771.16,767.78 ZM 880.61 758.44 C881.84,758.88 882.73,759.33 883.15,759.75 C883.32,759.92 883.49,760.53 883.64,761.43 C883.13,760.01 882.23,759.15 880.61,758.44 ZM 651.09 762.53 C646.96,760.09 642.01,757.88 637.42,756.45 C640.21,757.25 642.84,758.26 645.53,759.54 C647.54,760.49 649.39,761.48 651.09,762.53 ZM 862.51 775.84 C868.23,776.11 871.96,776.68 876.00,777.77 C872.58,776.85 867.74,776.20 862.51,775.84 ZM 827.27 781.13 C829.51,779.22 831.91,777.91 835.13,777.05 C834.88,777.12 834.64,777.20 834.41,777.28 C831.68,778.23 829.30,779.52 827.27,781.13 ZM 884.36 770.40 C884.52,774.75 884.45,778.88 884.00,779.31 C884.26,779.06 884.42,775.11 884.36,770.40 ZM 888.66 844.87 C888.67,844.86 888.68,844.85 888.69,844.84 C889.02,844.57 889.29,843.65 889.50,842.36 L 889.50 844.46 ZM 712.36 778.84 C712.20,780.22 712.09,782.43 712.04,784.88 C711.96,782.08 711.97,780.16 712.36,778.84 ZM 841.38 810.26 C840.99,808.87 840.99,806.78 841.00,803.62 C841.00,803.24 841.00,802.84 841.00,802.42 C841.00,805.50 841.16,808.57 841.38,810.26 ZM 497.96 838.52 C497.90,845.35 497.56,848.02 496.81,848.58 C497.50,847.96 497.85,845.03 497.96,838.52 ZM 624.60 754.35 C619.30,754.02 612.95,753.95 607.48,754.14 C609.35,754.06 611.32,754.02 613.42,754.01 C617.64,754.01 621.31,754.11 624.60,754.35 ZM 725.21 776.09 C720.54,776.06 717.61,776.10 715.75,776.28 C717.43,776.01 719.84,776.03 723.26,776.07 C723.88,776.08 724.52,776.09 725.21,776.09 ZM 663.82 775.42 C662.74,773.65 661.52,771.89 660.28,770.33 C661.60,771.90 662.77,773.59 663.82,775.42 ZM 712.67 798.33 C712.73,798.40 712.97,798.46 713.37,798.52 L 712.50 798.50 L 712.48 797.80 C712.54,798.08 712.60,798.26 712.67,798.33 ZM 539.79 813.63 C539.86,813.59 539.93,813.52 539.99,813.43 C539.92,813.54 539.84,813.62 539.75,813.67 C539.47,813.85 537.74,814.00 535.05,814.10 C537.71,813.97 539.48,813.82 539.79,813.63 ZM 739.93 799.00 L 739.87 799.06 L 737.13 799.00 ZM 977.17 792.79 L 974.91 792.51 C975.50,792.55 975.97,792.59 976.29,792.65 ZM 540.33 812.71 C540.77,811.29 541.00,808.35 541.00,803.94 C541.00,808.41 540.78,811.29 540.33,812.71 ZM 980.07 793.27 L 979.50 810.50 L 979.79 801.83 L 980.07 793.27 ZM 884.60 846.55 C885.34,846.31 886.04,846.07 886.64,845.83 C886.14,846.04 885.44,846.29 884.60,846.55 Z" fill="rgb(242,114,40)"/>
<path d="M 516.99 272.00 C516.61,272.83 515.33,273.64 514.15,273.82 C512.56,274.06 511.73,273.41 510.97,271.32 C506.09,258.00 502.43,249.10 500.98,247.00 C500.03,245.62 497.64,241.22 495.66,237.22 C493.69,233.21 491.37,229.23 490.50,228.36 C489.64,227.50 488.05,225.06 486.97,222.93 C484.63,218.35 468.91,202.23 463.37,198.73 C458.01,195.35 456.51,193.37 457.61,191.13 C458.65,189.00 469.52,179.38 476.00,174.85 C478.48,173.12 482.63,168.96 485.22,165.60 C487.82,162.25 491.42,157.76 493.22,155.64 C495.03,153.52 498.65,147.90 501.29,143.14 C506.68,133.41 506.95,132.82 510.08,124.50 C514.26,113.34 515.72,113.30 520.98,124.25 C523.16,128.79 525.35,133.18 525.85,134.00 C526.35,134.82 527.50,137.23 528.41,139.36 C534.19,152.81 556.63,179.23 569.25,187.44 C570.93,188.54 572.00,190.12 572.00,191.53 C572.00,193.74 571.23,194.54 562.43,201.50 C554.42,207.84 547.01,216.62 539.42,228.79 C537.26,232.25 533.61,237.96 531.29,241.49 C528.97,245.02 526.18,250.63 525.09,253.97 C523.99,257.30 521.88,262.39 520.39,265.26 C518.90,268.14 517.37,271.17 516.99,272.00 ZM 516.63 269.25 C521.22,255.01 536.71,226.76 546.16,215.41 C552.06,208.32 557.36,203.11 563.36,198.50 C566.93,195.75 570.10,192.94 570.40,192.26 C570.71,191.54 568.52,189.24 565.22,186.82 C557.52,181.17 545.26,168.50 537.54,158.21 C532.00,150.83 517.00,122.85 517.00,119.90 C517.00,119.33 516.29,119.00 515.42,119.18 C514.55,119.35 513.03,121.75 512.05,124.50 C506.59,139.79 494.96,158.50 483.78,170.00 C479.39,174.51 469.05,183.52 463.97,187.25 C461.79,188.86 460.02,190.92 460.04,191.84 C460.06,192.75 462.33,195.28 465.08,197.45 C469.41,200.86 474.03,205.38 483.73,215.68 C489.90,222.24 503.21,245.81 509.06,260.54 C513.10,270.71 515.33,273.28 516.63,269.25 ZM 424.80 310.80 C424.14,311.46 423.24,312.00 422.81,312.00 C422.37,312.00 416.20,306.94 409.10,300.75 C402.00,294.56 394.62,288.15 392.70,286.50 C390.78,284.85 384.55,279.31 378.86,274.20 C369.29,265.61 364.23,261.03 348.75,246.94 C342.24,241.02 341.52,238.33 345.75,235.77 C349.07,233.78 356.15,227.69 364.98,219.27 C368.74,215.68 372.40,213.03 373.63,213.02 C376.12,213.00 378.87,216.39 384.98,227.00 C387.36,231.12 391.01,237.43 393.11,241.00 C398.26,249.78 405.79,264.09 412.58,278.00 C415.66,284.33 419.95,292.99 422.10,297.25 C426.15,305.31 426.84,308.76 424.80,310.80 ZM 610.15 308.75 C607.94,310.54 605.64,312.00 605.04,312.00 C603.31,312.00 602.56,308.90 603.85,307.11 C604.49,306.23 605.17,305.05 605.35,304.50 C608.68,294.79 610.42,290.59 611.68,289.25 C612.33,288.56 613.80,285.47 614.96,282.37 C616.12,279.27 618.40,275.12 620.03,273.14 C621.67,271.16 623.00,268.85 623.00,268.00 C623.00,267.16 624.11,264.82 625.48,262.82 C626.84,260.82 629.96,255.37 632.42,250.71 C634.87,246.06 640.17,237.29 644.19,231.21 C648.21,225.14 652.41,218.68 653.52,216.84 C656.65,211.64 658.66,212.07 667.08,219.74 C671.20,223.50 677.81,229.16 681.78,232.33 C685.75,235.49 689.00,238.32 689.00,238.61 C689.00,240.31 686.42,243.35 683.21,245.43 C681.17,246.76 677.70,249.49 675.50,251.50 C673.30,253.52 669.49,256.82 667.03,258.83 C664.56,260.85 660.29,264.56 657.53,267.08 C654.76,269.60 651.53,272.31 650.35,273.11 C649.16,273.90 642.64,279.77 635.85,286.15 C624.25,297.04 619.96,300.82 610.15,308.75 ZM 421.97 304.75 C421.95,303.51 421.28,301.63 420.47,300.56 C419.66,299.49 419.00,297.80 419.00,296.80 C419.00,295.79 418.59,294.19 418.09,293.24 C417.12,291.40 413.19,282.84 410.64,277.00 C409.79,275.08 407.47,270.58 405.47,267.00 C403.47,263.42 400.00,257.12 397.76,253.00 C395.51,248.88 392.90,244.38 391.95,243.00 C391.01,241.62 389.24,238.70 388.04,236.50 C380.39,222.60 375.40,215.00 373.90,215.00 C372.98,215.00 368.42,218.49 363.76,222.75 C359.10,227.01 352.97,232.44 350.14,234.81 C347.31,237.17 345.00,239.54 345.00,240.06 C345.00,241.20 346.40,242.60 355.96,251.00 C360.03,254.57 364.09,258.17 364.99,259.00 C365.89,259.83 369.97,263.41 374.06,266.97 C378.15,270.53 384.20,275.99 387.50,279.10 C397.76,288.78 419.44,306.95 420.75,306.98 C421.44,306.99 421.99,305.99 421.97,304.75 ZM 613.33 290.50 C611.27,294.45 607.61,302.22 605.91,306.13 C605.34,307.04 605.06,307.75 605.06,308.24 C605.02,308.36 605.00,308.44 605.00,308.48 C605.00,308.92 605.25,309.09 605.75,308.98 C605.83,308.99 605.91,309.00 606.00,309.00 C606.17,309.00 606.34,308.90 606.48,308.72 C607.60,308.20 609.36,306.99 611.80,305.07 C614.54,302.90 620.32,297.84 624.66,293.82 C644.70,275.23 677.30,246.81 682.50,243.41 C687.76,239.96 687.57,238.48 681.26,233.88 C678.09,231.57 673.01,227.39 669.96,224.59 C662.17,217.42 659.14,215.00 657.96,215.00 C657.01,215.00 647.25,229.37 641.52,239.21 C640.14,241.57 636.42,247.94 633.26,253.37 C630.09,258.79 624.78,268.47 621.46,274.87 C618.14,281.26 614.48,288.30 613.33,290.50 ZM 752.78 330.15 C748.54,331.72 744.05,333.00 742.80,333.00 C740.21,333.00 722.07,314.58 722.02,311.91 C722.01,311.04 725.71,307.49 730.25,304.03 C739.17,297.23 753.00,283.56 753.00,281.55 C753.00,279.86 756.30,277.00 758.26,277.00 C760.13,277.00 762.23,279.65 766.93,287.96 C770.29,293.91 779.02,303.53 786.55,309.56 C789.21,311.69 790.17,313.11 789.73,314.27 C788.90,316.42 777.05,322.26 767.77,325.09 C763.77,326.31 757.03,328.59 752.78,330.15 ZM 289.61 329.75 C287.96,330.99 285.46,331.95 284.06,331.90 C281.40,331.79 269.35,328.23 265.00,326.27 C263.62,325.65 258.00,323.93 252.50,322.45 C247.00,320.96 241.94,319.30 241.25,318.75 C238.86,316.85 239.98,313.50 244.51,309.00 C250.04,303.50 263.00,286.94 263.00,285.38 C263.00,284.76 263.72,283.65 264.60,282.91 C265.49,282.18 266.60,280.54 267.09,279.27 C267.57,277.99 268.67,276.68 269.52,276.35 C271.03,275.78 275.00,278.50 275.00,280.10 C275.00,283.77 288.57,297.63 299.24,304.86 C303.58,307.81 306.01,310.63 305.99,312.68 C305.98,313.79 293.35,326.95 289.61,329.75 ZM 751.63 328.38 C755.41,326.94 760.53,325.18 763.00,324.48 C775.37,320.98 787.01,315.49 786.97,313.18 C786.96,312.25 784.60,309.72 781.72,307.55 C775.59,302.90 768.68,294.76 764.19,286.87 C758.88,277.52 757.72,277.25 753.34,284.33 C750.40,289.09 741.56,297.82 731.04,306.36 L 723.82 312.23 L 727.65 316.36 C738.57,328.15 741.58,331.00 743.10,331.00 C744.01,331.00 747.85,329.82 751.63,328.38 ZM 295.48 321.21 C300.24,316.65 303.96,312.37 303.74,311.71 C303.52,311.04 299.10,307.21 293.92,303.20 C283.51,295.13 280.46,292.02 275.38,284.25 C273.49,281.36 271.29,279.00 270.49,279.00 C269.69,279.00 268.07,280.91 266.89,283.25 C264.44,288.09 254.56,301.04 247.06,309.24 C244.28,312.29 242.00,315.05 242.00,315.37 C242.00,316.45 249.41,319.75 256.73,321.92 C260.70,323.10 268.58,325.59 274.23,327.44 C279.88,329.29 285.02,330.51 285.66,330.15 C286.29,329.79 290.71,325.77 295.48,321.21 ZM 747.05 790.50 C746.37,792.33 745.17,794.11 743.45,795.75 L 741.21 797.87 L 739.93 799.00 L 737.13 799.00 L 726.18 798.78 L 713.37 798.52 C712.97,798.46 712.73,798.40 712.67,798.33 C712.60,798.26 712.54,798.08 712.48,797.80 L 712.21 789.50 C712.18,788.64 712.15,787.83 712.12,787.08 C712.09,786.29 712.06,785.56 712.04,784.88 C712.09,782.43 712.20,780.22 712.36,778.84 C712.54,778.24 712.80,777.77 713.16,777.40 C713.73,776.81 714.56,776.47 715.75,776.28 C717.60,776.10 720.54,776.06 725.20,776.09 L 725.21 776.09 C725.39,776.10 725.58,776.10 725.77,776.10 C732.77,776.15 739.62,776.51 740.99,776.89 L 740.99 776.89 C742.36,777.27 744.50,779.10 745.74,780.94 C745.74,780.95 745.75,780.96 745.75,780.96 L 745.79 781.01 C747.41,783.42 747.99,786.02 747.57,788.58 C747.32,788.26 747.12,788.88 747.08,790.15 C747.08,790.26 747.07,790.38 747.05,790.50 ZM 714.46 795.64 C715.77,797.51 716.97,797.73 726.21,797.82 C731.87,797.87 737.87,797.48 739.54,796.95 C743.24,795.77 746.00,791.40 746.00,786.71 C746.00,779.37 741.07,777.13 724.82,777.04 C713.82,776.99 713.00,777.66 713.00,786.85 C713.00,791.11 713.53,794.32 714.46,795.64 ZM 548.79 766.25 L 548.50 756.50 L 470.00 755.98 L 470.00 761.91 L 470.09 761.82 L 470.03 802.46 L 469.97 848.94 L 470.00 848.94 L 482.75 849.22 C489.76,849.37 496.06,849.11 496.75,848.63 C496.77,848.61 496.79,848.60 496.81,848.58 C497.21,848.28 497.49,847.37 497.68,845.55 C497.49,847.43 497.20,848.36 496.79,848.67 C496.08,849.22 489.80,849.78 482.83,849.92 C470.96,850.16 470.09,850.05 469.07,848.13 C468.32,846.72 468.06,832.10 468.24,800.80 L 468.50 755.50 L 508.78 755.24 C513.06,755.21 516.92,755.17 520.38,755.14 C541.71,754.94 548.13,754.88 549.95,757.75 C550.74,758.98 550.67,760.76 550.58,763.29 C550.54,764.25 550.50,765.31 550.50,766.50 C550.50,767.49 550.51,768.39 550.53,769.22 C550.58,772.57 550.61,774.68 549.61,775.99 C547.91,778.21 543.27,778.16 530.76,778.04 C528.93,778.03 526.94,778.01 524.75,777.99 C511.41,777.91 499.92,777.88 499.21,777.92 C498.25,777.98 497.99,779.86 498.21,785.25 L 498.50 792.50 L 518.92 792.77 C532.25,792.95 539.82,793.44 540.71,794.17 C541.72,795.01 542.00,797.75 541.78,804.90 L 541.50 814.50 L 528.81 814.30 C531.17,814.24 533.30,814.18 535.05,814.10 L 535.05 814.10 C537.74,814.00 539.47,813.85 539.75,813.67 C539.84,813.62 539.92,813.54 539.99,813.43 C540.12,813.26 540.23,813.02 540.33,812.71 C540.78,811.29 541.00,808.41 541.00,803.94 C541.00,799.02 540.89,794.91 540.75,794.80 C540.61,794.69 530.83,794.35 519.00,794.05 L 497.50 793.50 L 497.50 776.50 L 518.00 776.47 C529.28,776.45 540.88,776.33 543.79,776.22 L 549.07 776.00 ZM 826.02 782.28 C826.44,781.87 826.85,781.49 827.27,781.13 C829.30,779.52 831.68,778.23 834.41,777.28 C834.64,777.20 834.88,777.12 835.13,777.05 C839.43,775.90 845.20,775.55 854.00,775.62 C857.31,775.65 860.09,775.72 862.51,775.84 C867.74,776.20 872.58,776.85 876.00,777.77 C880.12,778.88 883.72,779.58 884.00,779.31 C884.26,779.06 884.42,775.11 884.36,770.40 C884.36,770.18 884.36,769.95 884.35,769.73 C884.29,765.68 884.25,763.15 883.64,761.43 C883.49,760.53 883.32,759.92 883.15,759.75 C882.73,759.33 881.84,758.88 880.61,758.44 C878.98,757.72 876.61,757.16 873.17,756.34 C869.45,755.45 866.01,754.97 860.69,754.75 C858.79,754.57 856.87,754.43 855.00,754.34 C846.36,753.92 836.17,754.43 829.98,755.40 C828.79,755.54 827.93,755.70 827.50,755.86 L 827.46 755.87 C826.04,756.20 825.04,756.55 824.59,756.92 C823.98,757.43 821.32,758.39 818.69,759.06 C817.32,759.40 815.96,759.86 814.63,760.41 C817.05,759.14 819.07,757.89 819.50,757.37 C821.34,755.14 828.39,753.93 843.00,753.32 C865.14,752.41 883.13,755.58 885.09,760.75 C886.51,764.47 886.20,777.34 884.65,779.47 C883.43,781.14 882.87,781.20 878.90,780.06 C860.43,774.80 843.04,774.89 832.09,780.30 C826.56,783.03 825.18,784.27 822.70,788.77 C820.14,793.40 819.78,795.06 819.75,802.54 C819.72,810.02 820.07,811.75 822.62,816.75 C825.48,822.33 826.41,823.11 834.32,826.52 C838.85,828.47 854.40,828.68 858.43,826.85 C860.72,825.81 861.00,825.10 861.00,820.40 C861.00,817.49 860.52,814.82 859.94,814.46 C859.35,814.10 855.19,813.56 850.69,813.26 C849.65,813.19 848.64,813.09 847.69,812.98 C848.72,813.00 849.91,813.00 851.28,813.00 L 851.29 813.00 C851.71,813.00 852.15,813.00 852.61,813.00 L 863.00 813.00 L 863.00 820.46 C863.00,830.00 862.37,830.41 847.89,830.46 C838.26,830.50 836.73,830.24 831.35,827.67 C821.89,823.15 818.74,816.87 818.73,802.50 C818.72,796.40 819.85,791.32 822.11,787.25 C823.26,785.44 824.76,783.50 826.02,782.28 ZM 984.25 848.43 L 988.00 847.82 L 988.00 829.00 L 985.25 829.01 C983.74,829.02 975.30,828.83 966.50,828.58 C957.70,828.34 947.24,828.11 943.25,828.07 L 936.00 828.00 L 936.00 811.04 L 957.75 810.77 L 979.50 810.50 L 980.07 793.27 L 980.07 793.27 L 980.08 793.15 L 977.17 792.79 L 976.29 792.65 C976.15,792.62 975.98,792.60 975.79,792.58 L 980.50 792.50 L 980.50 811.50 L 959.55 811.77 C944.31,811.97 938.38,812.38 937.81,813.27 C936.58,815.20 936.87,824.47 938.20,825.80 C939.06,826.66 945.89,827.00 962.62,827.00 C975.39,827.00 986.55,827.27 987.42,827.61 C988.72,828.11 989.00,830.05 989.00,838.61 L 989.00 849.00 L 973.75 849.11 C968.89,849.15 960.91,849.22 952.49,849.29 C968.05,849.08 982.28,848.75 984.25,848.43 ZM 170.06 454.90 C168.01,453.76 166.52,453.00 166.25,453.00 C165.82,453.00 163.72,451.82 161.59,450.37 C158.87,448.52 158.13,447.55 159.11,447.12 C159.87,446.78 193.12,446.73 233.00,447.00 C240.80,447.05 248.46,447.10 255.77,447.13 C208.92,447.35 164.87,447.80 164.51,448.15 C163.39,449.28 165.82,452.17 170.06,454.90 ZM 844.50 466.78 C837.35,470.90 827.67,476.29 823.00,478.78 C820.44,480.13 817.84,481.52 815.18,482.96 C817.84,481.52 820.44,480.13 823.00,478.78 C827.67,476.29 836.96,471.11 843.64,467.25 C850.31,463.39 858.42,458.83 861.66,457.10 C867.90,453.78 870.34,451.06 869.38,448.54 C869.28,448.30 868.94,448.10 868.04,447.93 C873.60,448.10 876.41,448.29 876.38,448.50 C876.32,449.05 872.05,451.70 866.88,454.40 C861.72,457.09 851.65,462.66 844.50,466.78 ZM 709.53 446.50 L 792.99 447.00 L 710.07 447.00 ZM 313.77 447.00 L 321.74 446.51 L 321.23 447.00 ZM 212.00 479.20 C214.48,480.58 218.30,482.75 220.50,484.01 C218.30,482.75 214.48,480.59 212.00,479.20 C205.08,475.34 187.00,464.89 177.62,459.34 C192.15,467.79 208.59,477.29 212.00,479.20 ZM 808.44 763.80 C803.07,767.49 798.43,772.79 795.29,778.92 C798.45,772.57 802.90,767.45 808.44,763.80 ZM 939.70 792.09 C940.67,792.46 943.56,792.71 947.95,792.83 C943.62,792.81 940.86,792.57 939.70,792.12 C938.39,791.60 937.69,791.28 937.36,790.35 C937.69,791.28 938.39,791.58 939.70,792.09 ZM 342.31 426.79 C346.68,422.64 351.18,418.39 354.53,415.28 C360.98,409.28 365.10,405.03 367.08,402.29 C365.10,405.03 360.99,409.28 354.55,415.28 C351.23,418.37 346.72,422.61 342.31,426.79 ZM 498.50 815.00 C498.20,815.68 497.98,820.71 497.94,827.11 L 497.94 827.04 C497.97,820.55 498.19,815.51 498.48,815.03 C498.49,815.02 498.49,815.01 498.50,815.00 ZM 664.64 404.08 C667.00,406.79 671.30,411.01 678.79,418.03 C671.31,411.02 667.01,406.80 664.64,404.08 Z" fill="rgb(234,208,185)"/>
<path d="M 0.00 512.00 L 0.00 0.00 L 512.00 0.00 L 1024.00 0.00 L 1024.00 512.00 L 1024.00 1024.00 L 512.00 1024.00 L 0.00 1024.00 L 0.00 512.00 ZM 113.97 848.50 C118.08,847.61 122.01,846.40 122.72,845.82 C123.61,845.08 124.00,841.57 124.00,834.26 L 124.00 823.77 L 121.25 824.29 C119.74,824.58 116.03,825.55 113.00,826.45 C105.40,828.73 88.64,829.59 82.17,828.04 C75.54,826.45 69.64,822.13 66.78,816.76 C64.91,813.24 64.51,810.94 64.51,803.50 C64.51,793.15 65.82,788.58 70.04,784.27 C75.04,779.16 79.38,777.69 91.00,777.21 C100.72,776.80 106.29,777.45 120.25,780.61 L 123.00 781.23 L 123.00 770.12 C123.00,759.55 122.90,759.00 120.93,759.00 C119.80,759.00 118.11,758.59 117.18,758.10 C114.23,756.52 97.28,754.00 89.75,754.02 C74.55,754.06 60.86,757.53 50.84,763.89 C38.21,771.90 31.17,795.13 35.48,814.59 C40.22,835.95 52.77,847.08 75.50,850.07 C84.31,851.23 105.38,850.37 113.97,848.50 ZM 203.50 849.60 C216.86,847.55 222.94,844.90 229.59,838.19 C238.98,828.72 243.00,817.84 243.00,801.91 C243.00,770.61 224.23,754.17 188.34,754.03 C171.27,753.97 156.74,758.38 147.28,766.49 C142.08,770.95 136.34,782.15 134.99,790.50 C130.43,818.51 142.67,841.97 165.00,848.04 C176.10,851.06 190.26,851.64 203.50,849.60 ZM 636.50 848.65 C645.78,846.14 653.51,841.47 658.50,835.34 C667.72,824.02 669.63,816.76 668.67,796.69 C668.09,784.48 667.82,783.15 664.77,777.17 C660.79,769.36 654.92,763.98 645.53,759.54 C636.77,755.39 628.68,754.00 613.42,754.01 C599.69,754.03 591.38,755.68 582.56,760.12 C571.37,765.75 564.42,774.78 561.43,787.58 C559.25,796.93 559.86,813.34 562.69,821.07 C565.06,827.55 570.56,835.92 574.81,839.50 C579.70,843.61 592.23,849.02 599.11,849.99 C607.50,851.17 630.16,850.36 636.50,848.65 ZM 877.40 848.38 C881.20,847.60 885.47,846.40 886.90,845.71 L 889.50 844.46 L 889.55 820.98 C889.57,808.07 889.27,796.82 888.88,795.98 C888.33,794.79 886.57,794.51 880.84,794.67 C876.80,794.78 866.19,794.90 857.25,794.94 L 841.00 795.00 L 841.02 802.75 C841.02,807.01 841.36,811.00 841.77,811.60 C842.17,812.21 846.18,812.95 850.69,813.26 C855.19,813.56 859.35,814.10 859.94,814.46 C860.52,814.82 861.00,817.49 861.00,820.40 C861.00,825.10 860.72,825.81 858.43,826.85 C854.40,828.68 838.85,828.47 834.32,826.52 C826.41,823.11 825.48,822.33 822.62,816.75 C820.07,811.75 819.72,810.02 819.75,802.54 C819.78,795.06 820.14,793.40 822.70,788.77 C825.18,784.27 826.56,783.03 832.09,780.30 C843.04,774.89 860.43,774.80 878.90,780.06 C882.87,781.20 883.43,781.14 884.65,779.47 C886.20,777.34 886.51,764.47 885.09,760.75 C883.13,755.58 865.14,752.41 843.00,753.32 C828.39,753.93 821.34,755.14 819.50,757.37 C818.95,758.03 815.85,759.86 812.61,761.43 C803.54,765.83 796.80,773.66 793.09,784.12 C789.83,793.29 790.08,814.09 793.55,822.54 C800.08,838.45 812.75,847.63 831.50,850.05 C839.94,851.14 869.15,850.08 877.40,848.38 ZM 496.79 848.67 C497.76,847.93 498.05,843.75 497.95,831.90 C497.88,823.21 498.13,815.59 498.52,814.96 C499.03,814.15 505.26,813.92 520.36,814.16 L 541.50 814.50 L 541.78 804.90 C542.00,797.75 541.72,795.01 540.71,794.17 C539.82,793.44 532.25,792.95 518.92,792.77 L 498.50 792.50 L 498.21 785.25 C497.99,779.86 498.25,777.98 499.21,777.92 C499.92,777.88 511.41,777.91 524.75,777.99 C552.85,778.17 550.50,779.22 550.50,766.50 C550.50,753.68 555.18,754.94 508.78,755.24 L 468.50 755.50 L 468.24 800.80 C468.06,832.10 468.32,846.72 469.07,848.13 C470.09,850.05 470.96,850.16 482.83,849.92 C489.80,849.78 496.08,849.22 496.79,848.67 ZM 782.23 848.17 C783.34,847.06 782.92,846.42 769.00,828.34 C764.88,822.97 761.13,817.99 760.68,817.25 C760.10,816.32 761.91,814.01 766.68,809.59 C774.82,802.05 777.01,797.14 777.00,786.43 C777.00,776.86 774.85,771.04 769.53,766.13 C759.60,756.98 754.38,756.02 714.75,756.01 L 685.00 756.00 L 685.00 802.53 L 685.00 849.06 L 698.75 848.78 L 712.50 848.50 L 712.78 833.75 L 713.05 819.00 L 720.84 819.00 C729.63,819.00 730.27,819.34 735.07,826.48 C736.90,829.21 739.07,832.23 739.89,833.18 C740.70,834.13 743.45,837.97 746.00,841.70 C749.45,846.76 751.38,848.66 753.57,849.14 C758.12,850.13 781.04,849.36 782.23,848.17 ZM 973.75 849.11 L 989.00 849.00 L 989.00 838.61 C989.00,830.05 988.72,828.11 987.42,827.61 C986.55,827.27 975.39,827.00 962.62,827.00 C945.89,827.00 939.06,826.66 938.20,825.80 C936.87,824.47 936.58,815.20 937.81,813.27 C938.38,812.38 944.31,811.97 959.55,811.77 L 980.50 811.50 L 980.50 802.00 L 980.50 792.50 L 961.50 792.83 C949.54,793.04 941.46,792.77 939.70,792.09 C936.98,791.04 936.92,790.84 937.20,784.26 L 937.50 777.50 L 963.00 777.00 L 988.50 776.50 L 988.50 766.50 L 988.50 756.50 L 948.25 756.24 L 908.00 755.98 L 908.00 802.41 C908.00,838.65 908.27,848.93 909.25,849.26 C909.94,849.49 921.30,849.58 934.50,849.46 C947.70,849.33 965.36,849.18 973.75,849.11 ZM 317.95 848.03 C331.95,846.00 341.84,840.01 348.50,829.53 C353.98,820.90 355.21,815.17 354.83,799.93 C354.52,787.51 354.28,786.06 351.61,780.61 C347.51,772.25 338.90,763.95 331.44,761.18 C319.47,756.73 313.11,756.04 284.25,756.02 L 257.00 756.00 L 257.00 801.83 C257.00,827.04 257.30,847.97 257.67,848.33 C258.68,849.35 310.61,849.09 317.95,848.03 ZM 450.79 839.08 C451.00,832.22 450.73,829.44 449.79,828.85 C449.08,828.40 437.14,828.02 423.25,828.02 L 398.00 828.00 L 398.00 819.52 L 398.00 811.04 L 419.75 810.77 L 441.50 810.50 L 441.50 802.00 L 441.50 793.50 L 420.00 793.00 L 398.50 792.50 L 398.21 784.77 L 397.92 777.03 L 423.71 776.77 L 449.50 776.50 L 449.78 766.25 L 450.07 756.00 L 410.03 756.00 L 370.00 756.00 L 370.00 801.83 C370.00,827.04 370.31,847.97 370.68,848.34 C371.05,848.72 389.16,848.91 410.93,848.76 L 450.50 848.50 L 450.79 839.08 ZM 375.55 711.16 C376.07,710.70 381.23,709.80 387.00,709.16 C392.77,708.51 403.80,707.30 411.50,706.45 C419.20,705.61 430.00,704.23 435.50,703.39 C467.28,698.53 474.98,698.04 520.00,698.05 C544.86,698.06 566.50,698.51 570.50,699.10 C574.35,699.68 581.10,700.52 585.50,700.99 C589.90,701.45 598.22,702.56 604.00,703.45 C609.78,704.35 619.00,705.50 624.50,706.01 C630.00,706.52 638.33,707.41 643.00,707.99 C647.67,708.57 656.00,709.47 661.50,709.99 C674.04,711.17 793.69,711.31 794.41,710.14 C794.86,709.42 786.04,694.80 773.90,676.12 L 771.05 671.73 L 758.13 668.42 C751.03,666.60 741.69,663.96 737.39,662.56 C733.08,661.15 724.42,658.85 718.13,657.44 C711.85,656.03 704.86,654.28 702.60,653.55 C700.35,652.82 695.80,651.45 692.50,650.51 C689.20,649.57 685.38,648.43 684.00,647.99 C682.62,647.55 677.45,645.98 672.50,644.49 C667.55,643.01 661.92,641.19 660.00,640.45 C658.08,639.71 654.92,638.83 653.00,638.48 C649.42,637.85 646.88,637.14 632.00,632.62 C627.33,631.20 621.65,629.76 619.39,629.42 C613.02,628.44 612.29,627.71 613.82,623.79 C615.19,620.28 625.32,591.17 627.49,584.50 C630.26,575.98 635.08,564.88 639.44,556.99 C641.95,552.46 644.02,548.47 644.04,548.13 C644.18,546.03 657.93,530.35 665.51,523.64 C673.76,516.34 699.91,498.00 702.08,498.00 C704.56,498.00 702.52,495.16 698.71,493.31 C694.60,491.32 685.64,485.63 676.00,478.90 C673.53,477.17 668.58,473.23 665.00,470.14 C645.63,453.40 638.46,444.54 628.66,425.19 C621.23,410.53 618.15,402.28 615.13,389.00 C613.94,383.77 612.52,377.58 611.98,375.24 C611.44,372.89 611.00,369.68 611.00,368.11 C611.00,366.53 610.38,364.73 609.63,364.11 C608.65,363.30 598.03,363.05 572.38,363.24 L 536.50 363.50 L 536.76 368.45 C537.21,376.94 545.01,404.67 550.07,415.74 C551.13,418.07 552.00,420.28 552.00,420.64 C552.00,421.61 556.38,430.96 562.72,443.50 C570.19,458.29 579.76,470.86 595.59,486.68 L 608.78 499.87 L 595.12 513.68 C583.86,525.06 573.00,538.22 573.00,540.47 C573.00,540.74 571.50,543.33 569.66,546.23 C560.75,560.27 547.21,590.64 541.63,609.11 C538.15,620.63 533.46,639.21 532.83,644.00 L 532.50 646.50 L 516.89 646.77 C505.17,646.98 501.04,646.73 500.28,645.77 C499.72,645.07 498.25,640.45 497.01,635.50 C490.24,608.58 487.38,599.33 481.52,585.51 C464.80,546.03 451.29,525.56 428.30,504.88 C426.09,502.88 424.01,500.82 423.68,500.29 C423.35,499.75 429.04,493.28 436.33,485.91 C454.00,468.03 464.54,451.94 474.29,428.00 C485.51,400.44 491.73,380.20 493.18,366.50 L 493.50 363.50 L 456.27 363.24 L 419.04 362.98 L 418.59 365.24 C418.34,366.48 417.62,370.42 417.00,374.00 C412.17,401.54 400.46,428.96 384.85,449.32 C380.61,454.84 362.56,472.26 357.50,475.70 C355.30,477.20 350.02,481.03 345.78,484.21 C341.53,487.40 337.81,490.00 337.51,490.00 C336.07,490.00 329.00,495.42 329.00,496.52 C329.00,497.20 331.81,499.44 335.25,501.49 C356.06,513.87 371.97,527.78 381.74,542.11 C390.30,554.67 400.38,575.95 405.86,593.00 C410.94,608.81 415.63,623.25 416.60,626.07 C417.03,627.31 415.22,628.16 407.82,630.20 C391.92,634.59 374.04,639.84 361.00,643.96 C349.86,647.48 325.45,654.59 316.00,657.07 C314.08,657.57 306.65,659.61 299.50,661.59 C288.03,664.77 273.85,668.46 265.82,670.37 C263.91,670.82 262.06,672.80 259.36,677.25 C253.03,687.71 240.00,706.42 238.45,707.29 C237.65,707.73 237.00,708.98 237.00,710.05 C237.00,711.96 238.25,712.00 305.80,712.00 C343.64,712.00 375.03,711.62 375.55,711.16 ZM 359.58 593.66 C360.04,592.45 354.68,578.59 351.78,573.50 C351.15,572.40 348.75,567.67 346.44,563.00 C342.34,554.72 340.13,552.02 335.00,549.05 C333.62,548.26 328.67,545.39 324.00,542.69 C319.33,539.99 314.38,537.00 313.00,536.05 C311.62,535.10 305.77,531.94 300.00,529.03 C294.23,526.11 288.31,522.89 286.85,521.86 C285.39,520.84 283.98,520.00 283.72,520.00 C283.12,520.00 265.72,510.14 260.50,506.84 C254.30,502.92 238.20,493.60 231.00,489.76 C227.43,487.86 222.70,485.27 220.50,484.01 C218.30,482.75 214.48,480.58 212.00,479.20 C208.09,477.01 187.07,464.85 171.42,455.73 C166.36,452.79 163.27,449.39 164.51,448.15 C165.02,447.65 253.76,446.96 313.37,447.00 L 321.23 447.00 L 332.40 436.25 C338.54,430.34 348.51,420.90 354.55,415.28 C366.10,404.53 370.17,399.38 367.81,398.49 C367.09,398.21 304.62,398.10 229.00,398.24 L 91.50 398.50 L 91.24 430.07 L 90.97 461.65 L 93.74 463.07 C95.26,463.85 98.58,465.96 101.12,467.75 C103.66,469.54 106.06,471.00 106.45,471.00 C106.84,471.00 109.49,472.51 112.33,474.35 C116.85,477.27 135.85,488.96 141.50,492.29 C142.60,492.94 146.96,495.61 151.19,498.23 C155.43,500.86 159.13,503.00 159.42,503.00 C159.71,503.00 164.35,505.84 169.73,509.30 C175.10,512.77 183.55,517.97 188.50,520.87 C193.45,523.77 200.65,528.13 204.50,530.56 C208.35,532.99 212.18,535.29 213.00,535.67 C213.82,536.05 217.65,538.50 221.50,541.11 C229.31,546.40 265.87,569.00 266.62,569.00 C267.34,569.00 291.23,584.09 293.26,585.82 C294.23,586.65 297.83,589.04 301.26,591.13 L 307.50 594.93 L 333.28 594.96 C353.97,594.99 359.16,594.73 359.58,593.66 ZM 726.70 593.78 C729.16,592.70 741.64,584.89 753.50,577.00 C757.25,574.51 781.28,560.10 783.52,559.00 C785.90,557.84 808.49,544.07 820.50,536.46 C827.65,531.94 835.08,527.34 837.00,526.24 C841.15,523.88 865.53,509.40 890.00,494.77 C899.62,489.01 912.00,481.68 917.50,478.48 C935.52,468.00 942.03,463.79 943.53,461.66 C944.74,459.92 945.00,454.40 945.00,429.98 C945.00,408.31 944.68,400.08 943.80,399.20 C942.88,398.28 910.09,398.00 802.30,398.00 C673.71,398.00 662.00,398.14 662.00,399.62 C662.00,402.09 666.38,406.61 689.13,427.64 L 710.07 447.00 L 789.43 447.00 C859.95,447.00 868.85,447.17 869.38,448.54 C870.34,451.06 867.90,453.78 861.66,457.10 C858.42,458.83 850.31,463.39 843.64,467.25 C836.96,471.11 827.67,476.29 823.00,478.78 C802.50,489.67 779.44,502.50 743.00,523.31 C741.08,524.41 737.06,526.61 734.07,528.20 C731.08,529.78 725.25,533.20 721.10,535.79 C716.96,538.38 708.38,543.44 702.03,547.04 C689.36,554.22 687.33,556.44 680.55,570.50 C672.92,586.32 670.81,592.06 672.06,593.57 C673.66,595.50 722.35,595.68 726.70,593.78 ZM 752.78 330.15 C757.03,328.59 763.77,326.31 767.77,325.09 C777.05,322.26 788.90,316.42 789.73,314.27 C790.17,313.11 789.21,311.69 786.55,309.56 C779.02,303.53 770.29,293.91 766.93,287.96 C762.23,279.65 760.13,277.00 758.26,277.00 C756.30,277.00 753.00,279.86 753.00,281.55 C753.00,283.56 739.17,297.23 730.25,304.03 C725.71,307.49 722.01,311.04 722.02,311.91 C722.07,314.58 740.21,333.00 742.80,333.00 C744.05,333.00 748.54,331.72 752.78,330.15 ZM 289.61 329.75 C293.35,326.95 305.98,313.79 305.99,312.68 C306.01,310.63 303.58,307.81 299.24,304.86 C288.57,297.63 275.00,283.77 275.00,280.10 C275.00,278.50 271.03,275.78 269.52,276.35 C268.67,276.68 267.57,277.99 267.09,279.27 C266.60,280.54 265.49,282.18 264.60,282.91 C263.72,283.65 263.00,284.76 263.00,285.38 C263.00,286.94 250.04,303.50 244.51,309.00 C239.98,313.50 238.86,316.85 241.25,318.75 C241.94,319.30 247.00,320.96 252.50,322.45 C258.00,323.93 263.62,325.65 265.00,326.27 C269.35,328.23 281.40,331.79 284.06,331.90 C285.46,331.95 287.96,330.99 289.61,329.75 ZM 424.80 310.80 C426.84,308.76 426.15,305.31 422.10,297.25 C419.95,292.99 415.66,284.33 412.58,278.00 C405.79,264.09 398.26,249.78 393.11,241.00 C391.01,237.43 387.36,231.12 384.98,227.00 C378.87,216.39 376.12,213.00 373.63,213.02 C372.40,213.03 368.74,215.68 364.98,219.27 C356.15,227.69 349.07,233.78 345.75,235.77 C341.52,238.33 342.24,241.02 348.75,246.94 C364.23,261.03 369.29,265.61 378.86,274.20 C384.55,279.31 390.78,284.85 392.70,286.50 C394.62,288.15 402.00,294.56 409.10,300.75 C416.20,306.94 422.37,312.00 422.81,312.00 C423.24,312.00 424.14,311.46 424.80,310.80 ZM 610.15 308.75 C619.96,300.82 624.25,297.04 635.85,286.15 C642.64,279.77 649.16,273.90 650.35,273.11 C651.53,272.31 654.76,269.60 657.53,267.08 C660.29,264.56 664.56,260.85 667.03,258.83 C669.49,256.82 673.30,253.52 675.50,251.50 C677.70,249.49 681.17,246.76 683.21,245.43 C686.42,243.35 689.00,240.31 689.00,238.61 C689.00,238.32 685.75,235.49 681.78,232.33 C677.81,229.16 671.20,223.50 667.08,219.74 C658.66,212.07 656.65,211.64 653.52,216.84 C652.41,218.68 648.21,225.14 644.19,231.21 C640.17,237.29 634.87,246.06 632.42,250.71 C629.96,255.37 626.84,260.82 625.48,262.82 C624.11,264.82 623.00,267.16 623.00,268.00 C623.00,268.85 621.67,271.16 620.03,273.14 C618.40,275.12 616.12,279.27 614.96,282.37 C613.80,285.47 612.33,288.56 611.68,289.25 C610.42,290.59 608.68,294.79 605.35,304.50 C605.17,305.05 604.49,306.23 603.85,307.11 C602.56,308.90 603.31,312.00 605.04,312.00 C605.64,312.00 607.94,310.54 610.15,308.75 ZM 516.99 272.00 C517.37,271.17 518.90,268.14 520.39,265.26 C521.88,262.39 523.99,257.30 525.09,253.97 C526.18,250.63 528.97,245.02 531.29,241.49 C533.61,237.96 537.26,232.25 539.42,228.79 C547.01,216.62 554.42,207.84 562.43,201.50 C571.23,194.54 572.00,193.74 572.00,191.53 C572.00,190.12 570.93,188.54 569.25,187.44 C556.63,179.23 534.19,152.81 528.41,139.36 C527.50,137.23 526.35,134.82 525.85,134.00 C525.35,133.18 523.16,128.79 520.98,124.25 C515.72,113.30 514.26,113.34 510.08,124.50 C506.95,132.82 506.68,133.41 501.29,143.14 C498.65,147.90 495.03,153.52 493.22,155.64 C491.42,157.76 487.82,162.25 485.22,165.60 C482.63,168.96 478.48,173.12 476.00,174.85 C469.52,179.38 458.65,189.00 457.61,191.13 C456.51,193.37 458.01,195.35 463.37,198.73 C468.91,202.23 484.63,218.35 486.97,222.93 C488.05,225.06 489.64,227.50 490.50,228.36 C491.37,229.23 493.69,233.21 495.66,237.22 C497.64,241.22 500.03,245.62 500.98,247.00 C502.43,249.10 506.09,258.00 510.97,271.32 C511.73,273.41 512.56,274.06 514.15,273.82 C515.33,273.64 516.61,272.83 516.99,272.00 ZM 180.22 829.00 C172.25,827.31 167.35,822.31 164.61,813.07 C162.46,805.82 162.58,798.57 164.97,790.82 C167.06,784.07 169.91,780.59 176.00,777.38 C180.89,774.81 194.67,774.79 201.32,777.36 C210.01,780.71 214.31,789.24 214.27,803.00 C214.22,816.21 211.02,822.91 202.74,827.13 C198.14,829.48 186.89,830.41 180.22,829.00 ZM 607.50 829.12 C598.35,827.43 593.89,823.19 590.38,812.87 C588.23,806.57 587.97,804.49 588.56,798.55 C589.44,789.57 591.85,784.09 596.65,780.14 C601.52,776.12 605.53,775.01 615.28,775.01 C632.91,774.99 640.30,783.07 640.44,802.50 C640.51,812.44 638.33,818.56 633.01,823.37 C627.43,828.41 616.73,830.82 607.50,829.12 ZM 714.46 795.64 C713.53,794.32 713.00,791.11 713.00,786.85 C713.00,777.66 713.82,776.99 724.82,777.04 C741.07,777.13 746.00,779.37 746.00,786.71 C746.00,791.40 743.24,795.77 739.54,796.95 C737.87,797.48 731.87,797.87 726.21,797.82 C716.97,797.73 715.77,797.51 714.46,795.64 ZM 284.49 826.83 C284.20,826.08 284.08,814.67 284.23,801.48 L 284.50 777.50 L 296.50 777.50 C310.29,777.50 315.71,779.01 320.72,784.26 C328.36,792.27 329.14,809.86 322.29,819.54 C321.31,820.94 318.25,823.28 315.50,824.75 C310.99,827.17 309.26,827.47 297.76,827.82 C287.62,828.12 284.91,827.92 284.49,826.83 Z" fill="rgb(252,252,252)"/>
</g>
</svg>