<svg xmlns="http://www.w3.org/2000/svg" width="1024" height="310" viewBox="0 0 1024 310">
<g>
<path d="M 323.69 267.64 C321.70,269.64 267.68,267.87 247.56,265.15 C225.48,262.17 205.84,262.27 180.85,265.50 C164.15,267.65 157.56,267.99 132.75,268.00 C116.94,268.00 104.00,267.78 104.00,267.50 C104.00,267.23 105.91,264.36 108.25,261.13 C110.59,257.90 112.95,254.60 113.50,253.78 C114.05,252.97 120.12,250.81 127.00,248.99 C141.48,245.15 173.79,235.55 174.44,234.89 C175.31,234.02 168.21,214.19 164.50,207.14 C160.45,199.43 152.34,191.04 144.47,186.43 C142.01,184.99 140.00,183.64 140.00,183.44 C140.00,183.24 142.78,181.19 146.17,178.88 C160.70,169.02 169.81,156.27 173.61,140.50 C174.54,136.65 175.44,132.94 175.62,132.25 C175.85,131.32 179.68,131.00 190.47,131.00 C191.65,131.00 192.74,130.99 193.76,130.99 C200.19,130.96 203.38,130.94 204.45,132.44 C205.51,133.92 204.50,136.87 202.51,142.72 C202.19,143.66 201.85,144.67 201.48,145.76 C196.65,160.19 191.65,169.27 184.14,177.23 L 177.78 183.98 L 183.05 189.74 C193.11,200.72 200.94,216.00 205.44,233.41 L 207.80 242.50 L 213.91 242.80 C218.26,243.01 220.14,242.72 220.43,241.80 C220.66,241.08 222.02,236.23 223.45,231.00 C224.89,225.77 228.54,216.42 231.57,210.21 C235.92,201.28 238.51,197.40 243.94,191.71 L 250.80 184.51 L 243.27 176.63 C237.16,170.24 234.85,166.85 230.98,158.63 C226.80,149.73 222.00,135.61 222.00,132.19 C222.00,131.32 226.10,131.00 237.00,131.00 L 252.00 131.00 L 252.00 133.64 C252.00,138.11 256.02,150.16 259.80,157.00 C264.08,164.75 272.29,173.12 281.38,179.00 C285.02,181.35 288.00,183.40 288.00,183.54 C288.00,183.69 285.96,185.00 283.48,186.46 C275.67,191.03 266.56,200.39 262.75,207.75 C258.46,216.02 252.46,233.91 253.64,234.91 C254.56,235.68 286.33,244.94 304.29,249.66 L 315.09 252.50 L 319.65 259.81 C322.16,263.83 323.98,267.35 323.69,267.64 ZM 313.76 211.84 L 297.01 222.00 L 286.51 222.00 C274.20,222.00 274.18,221.97 279.28,212.53 C283.11,205.43 283.78,204.99 326.15,181.51 C341.74,172.88 354.93,165.40 355.45,164.91 C356.02,164.36 343.32,164.00 323.80,164.00 L 291.20 164.00 L 282.35 155.92 C277.48,151.48 273.14,147.20 272.70,146.42 C272.01,145.20 279.81,145.00 327.98,145.00 L 384.06 145.00 L 383.78 157.25 L 383.50 169.50 L 377.50 173.32 C374.20,175.42 362.27,182.66 351.00,189.41 C339.73,196.16 322.97,206.26 313.76,211.84 ZM 151.45 221.08 C151.14,221.59 146.52,221.99 141.19,221.97 L 131.50 221.94 L 116.00 212.34 C93.40,198.34 71.15,184.68 57.75,176.60 L 46.00 169.51 L 46.00 145.00 L 101.25 145.04 L 156.50 145.07 L 146.75 154.52 L 136.99 163.97 L 73.52 164.50 L 84.01 170.64 C99.24,179.55 112.45,187.08 129.90,196.81 L 145.30 205.40 L 148.66 212.78 C150.51,216.84 151.76,220.57 151.45,221.08 ZM 526.58 203.75 C522.07,206.07 520.15,206.40 509.50,206.65 C502.90,206.81 496.38,206.57 495.00,206.12 C481.50,201.69 475.15,192.57 475.07,177.50 C474.99,164.65 479.72,156.77 490.50,151.80 C494.88,149.79 497.05,149.50 508.00,149.51 C519.38,149.52 521.00,149.76 526.11,152.14 C534.86,156.23 539.62,163.83 540.63,175.32 C541.69,187.38 535.99,198.91 526.58,203.75 ZM 590.88 204.44 C586.97,205.60 580.99,206.00 567.32,206.00 L 549.00 206.00 L 549.00 149.76 L 568.25 150.27 C578.84,150.55 589.13,151.28 591.12,151.90 C596.77,153.65 601.18,157.11 604.41,162.35 C606.98,166.51 607.45,168.36 607.79,175.83 C608.12,182.92 607.80,185.53 606.05,190.17 C603.38,197.27 598.00,202.33 590.88,204.44 ZM 665.80 199.75 L 665.50 205.50 L 617.00 206.04 L 617.00 150.00 L 665.10 150.00 L 664.50 162.50 L 634.00 163.05 L 634.00 172.11 L 644.75 172.00 C646.43,171.98 647.92,171.96 649.26,171.94 C656.40,171.83 658.91,171.79 659.70,172.94 C660.13,173.56 660.05,174.52 659.92,176.01 C659.88,176.53 659.83,177.10 659.80,177.75 L 659.50 183.50 L 646.75 183.12 L 634.00 182.75 L 634.00 194.00 L 666.10 194.00 ZM 464.00 205.60 C451.66,208.63 437.52,207.83 429.30,203.64 C419.18,198.47 415.04,191.04 415.04,178.00 C415.04,162.00 421.60,153.60 436.91,150.00 C443.24,148.51 458.41,149.16 464.50,151.17 L 468.50 152.50 L 468.80 158.88 L 469.10 165.25 L 466.30 164.62 C459.93,163.19 445.28,162.75 441.83,163.89 C435.62,165.94 433.58,169.11 433.17,177.37 C432.83,184.10 433.00,184.84 435.60,187.94 C437.15,189.77 439.88,191.89 441.67,192.64 C445.96,194.43 455.16,194.37 462.34,192.50 C465.51,191.68 468.32,191.00 468.59,191.00 C468.87,191.00 468.96,194.04 468.80,197.75 L 468.50 204.50 ZM 501.50 193.59 C508.66,196.77 518.99,193.66 521.54,187.56 C523.38,183.17 523.43,173.95 521.64,169.72 C519.11,163.75 516.72,162.50 507.82,162.50 C499.95,162.50 499.80,162.55 496.56,166.08 C489.05,174.28 491.74,189.25 501.50,193.59 ZM 565.75 193.44 C567.18,194.91 580.64,193.39 584.14,191.37 C593.35,186.05 593.26,169.38 584.00,164.75 C581.57,163.54 578.12,163.00 572.75,163.00 L 565.00 163.00 L 565.00 177.83 C565.00,185.99 565.34,193.01 565.75,193.44 Z" fill="rgb(54,54,54)"/>
<path d="M 779.39 205.29 C763.85,210.18 744.42,206.66 737.59,197.71 C727.86,184.95 729.52,162.86 740.81,154.89 C747.10,150.45 751.44,149.49 765.00,149.58 C776.45,149.65 777.93,149.88 782.64,152.29 C788.65,155.37 794.60,161.88 796.00,166.93 C796.54,168.90 796.99,174.10 796.98,178.50 C796.98,184.78 796.48,187.58 794.65,191.50 C791.68,197.86 785.64,203.32 779.39,205.29 ZM 823.08 188.00 L 822.50 205.50 L 814.87 205.79 C808.78,206.02 807.13,205.77 806.66,204.56 C805.87,202.50 805.86,165.20 806.65,156.65 L 807.28 149.80 L 827.39 150.18 C845.16,150.52 848.03,150.81 852.09,152.66 C863.68,157.93 865.41,172.76 855.50,181.89 L 851.02 186.02 L 857.99 195.13 C861.83,200.14 864.72,204.64 864.42,205.12 C864.13,205.60 859.97,205.98 855.19,205.96 L 846.50 205.92 L 840.16 196.96 L 833.82 188.00 ZM 925.50 204.45 C919.91,207.18 894.73,207.84 888.10,205.43 C875.06,200.68 869.01,190.36 870.29,175.06 C871.82,156.88 881.85,149.49 905.00,149.51 C911.34,149.52 918.88,150.13 921.80,150.87 L 927.09 152.22 L 926.80 157.86 L 926.50 163.50 L 923.00 163.22 C921.08,163.06 914.55,162.83 908.50,162.72 C898.97,162.53 897.03,162.77 894.00,164.55 C887.53,168.34 885.19,178.12 888.80,186.28 C891.51,192.42 895.41,194.47 904.13,194.35 C907.77,194.31 911.26,193.96 911.88,193.58 C912.50,193.19 913.00,191.11 913.00,188.94 C913.00,185.06 912.95,185.00 909.25,184.99 C901.88,184.96 901.00,184.31 901.00,178.88 L 901.00 174.00 L 930.05 174.00 L 929.50 202.50 ZM 988.80 199.78 L 988.50 205.50 L 941.00 206.04 L 941.00 149.96 L 988.50 150.50 L 988.50 162.50 L 958.00 163.05 L 958.00 172.00 L 983.84 172.00 L 984.49 174.96 C984.88,176.71 984.60,179.07 983.81,180.71 L 982.48 183.50 L 970.18 183.78 L 957.89 184.06 L 958.20 188.78 L 958.50 193.50 L 973.80 193.78 L 989.10 194.05 ZM 694.07 185.06 L 693.50 205.50 L 685.25 205.79 L 677.00 206.08 L 677.00 149.96 L 724.50 150.50 L 724.50 162.50 L 694.00 163.05 L 694.00 173.00 L 720.10 173.00 L 719.80 178.75 L 719.50 184.50 ZM 218.05 85.78 C215.79,90.30 213.74,94.00 213.49,94.00 C213.09,94.00 210.00,87.30 210.00,86.43 C210.00,84.52 201.43,72.34 197.23,68.30 L 191.83 63.10 L 199.27 55.76 C204.69,50.41 207.66,46.45 210.21,41.18 C212.05,37.39 212.96,35.33 213.97,35.28 C215.06,35.23 216.27,37.56 218.89,42.61 C219.07,42.95 219.25,43.31 219.44,43.67 C221.86,48.33 225.38,52.97 229.49,56.92 L 235.82 63.00 L 231.83 66.42 C226.47,71.00 222.97,75.93 218.05,85.78 ZM 758.54 194.27 C765.03,195.92 771.49,194.16 776.00,189.50 C779.00,186.41 779.45,185.23 779.81,179.71 C780.58,167.55 775.70,162.01 764.20,162.00 C753.01,162.00 748.92,166.27 748.87,178.02 C748.82,186.86 752.29,192.68 758.54,194.27 ZM 176.45 105.75 C177.86,110.37 176.07,109.06 155.27,90.20 L 146.03 81.83 L 151.68 77.01 C154.79,74.36 157.86,72.39 158.50,72.64 C160.67,73.47 174.23,98.48 176.45,105.75 ZM 258.00 102.50 C256.62,103.98 254.21,106.12 252.64,107.25 L 249.77 109.30 L 250.49 106.90 C251.52,103.42 261.15,85.27 265.61,78.39 C267.71,75.15 269.52,72.35 269.64,72.16 C270.01,71.56 272.57,73.37 277.34,77.61 L 281.97 81.73 L 271.24 90.77 C265.33,95.74 259.38,101.02 258.00,102.50 ZM 312.06 115.55 C308.07,116.90 304.51,118.00 304.14,118.00 C303.77,118.00 301.83,116.36 299.83,114.36 L 296.19 110.72 L 302.84 104.36 C306.49,100.86 309.81,98.00 310.22,98.00 C310.62,98.00 311.72,99.24 312.66,100.75 C313.59,102.26 315.94,105.19 317.88,107.25 C322.14,111.78 321.81,112.25 312.06,115.55 ZM 126.47 114.90 C124.52,116.60 122.61,117.97 122.22,117.93 C118.89,117.62 106.00,112.60 106.00,111.61 C106.00,110.92 107.19,109.26 108.64,107.92 C110.09,106.59 112.53,103.56 114.05,101.19 L 116.82 96.89 L 119.66 100.47 C121.22,102.44 124.19,105.22 126.25,106.66 C128.31,108.10 130.00,109.84 130.00,110.53 C130.00,111.23 128.41,113.19 126.47,114.90 ZM 823.67 175.33 C824.03,175.70 827.72,176.00 831.85,176.00 C838.20,176.00 839.73,175.66 841.69,173.83 C843.97,171.68 844.69,167.64 843.21,165.31 C841.97,163.35 837.20,162.00 831.52,162.00 C823.41,162.00 823.00,162.34 823.00,168.94 C823.00,172.09 823.30,174.97 823.67,175.33 Z" fill="rgb(238,113,41)"/>
<path d="M 15.46 294.75 C15.20,294.06 15.10,230.50 15.24,153.50 L 15.50 13.50 L 514.00 13.50 L 1012.50 13.50 L 1012.50 154.50 L 1012.50 295.50 L 514.22 295.75 C116.12,295.95 15.84,295.75 15.46,294.75 ZM 323.69 267.64 C323.98,267.35 322.16,263.83 319.65,259.81 L 315.09 252.50 L 304.29 249.66 C286.33,244.94 254.56,235.68 253.64,234.91 C252.46,233.91 258.46,216.02 262.75,207.75 C266.56,200.39 275.67,191.03 283.48,186.46 C285.96,185.00 288.00,183.69 288.00,183.54 C288.00,183.40 285.02,181.35 281.38,179.00 C272.29,173.12 264.08,164.75 259.80,157.00 C256.02,150.16 252.00,138.11 252.00,133.64 L 252.00 131.00 L 237.00 131.00 C226.10,131.00 222.00,131.32 222.00,132.19 C222.00,135.61 226.80,149.73 230.98,158.63 C234.85,166.85 237.16,170.24 243.27,176.63 L 250.80 184.51 L 243.94 191.71 C238.51,197.40 235.92,201.28 231.57,210.21 C228.54,216.42 224.89,225.77 223.45,231.00 C222.02,236.23 220.66,241.08 220.43,241.80 C220.14,242.72 218.26,243.01 213.91,242.80 L 207.80 242.50 L 205.44 233.41 C200.94,216.00 193.11,200.72 183.05,189.74 L 177.78 183.98 L 184.14 177.23 C191.65,169.27 196.65,160.19 201.48,145.76 C206.81,129.83 207.68,131.00 190.47,131.00 C179.68,131.00 175.85,131.32 175.62,132.25 C175.44,132.94 174.54,136.65 173.61,140.50 C169.81,156.27 160.70,169.02 146.17,178.88 C142.78,181.19 140.00,183.24 140.00,183.44 C140.00,183.64 142.01,184.99 144.47,186.43 C152.34,191.04 160.45,199.43 164.50,207.14 C168.21,214.19 175.31,234.02 174.44,234.89 C173.79,235.55 141.48,245.15 127.00,248.99 C120.12,250.81 114.05,252.97 113.50,253.78 C112.95,254.60 110.59,257.90 108.25,261.13 C105.91,264.36 104.00,267.23 104.00,267.50 C104.00,267.78 116.94,268.00 132.75,268.00 C157.56,267.99 164.15,267.65 180.85,265.50 C205.84,262.27 225.48,262.17 247.56,265.15 C267.68,267.87 321.70,269.64 323.69,267.64 ZM 151.45 221.08 C151.76,220.57 150.51,216.84 148.66,212.78 L 145.30 205.40 L 129.90 196.81 C112.45,187.08 99.24,179.55 84.01,170.64 L 73.52 164.50 L 105.25 164.24 L 136.99 163.97 L 146.75 154.52 L 156.50 145.07 L 101.25 145.04 L 46.00 145.00 L 46.00 157.25 L 46.00 169.51 L 57.75 176.60 C71.15,184.68 93.40,198.34 116.00,212.34 L 131.50 221.94 L 141.19 221.97 C146.52,221.99 151.14,221.59 151.45,221.08 ZM 313.76 211.84 C322.97,206.26 339.73,196.16 351.00,189.41 C362.27,182.66 374.20,175.42 377.50,173.32 L 383.50 169.50 L 383.78 157.25 L 384.06 145.00 L 327.98 145.00 C279.81,145.00 272.01,145.20 272.70,146.42 C273.14,147.20 277.48,151.48 282.35,155.92 L 291.20 164.00 L 323.80 164.00 C343.32,164.00 356.02,164.36 355.45,164.91 C354.93,165.40 341.74,172.88 326.15,181.51 C283.78,204.99 283.11,205.43 279.28,212.53 C274.18,221.97 274.20,222.00 286.51,222.00 L 297.01 222.00 L 313.76 211.84 ZM 464.00 205.60 L 468.50 204.50 L 468.80 197.75 C468.96,194.04 468.87,191.00 468.59,191.00 C468.32,191.00 465.51,191.68 462.34,192.50 C455.16,194.37 445.96,194.43 441.67,192.64 C439.88,191.89 437.15,189.77 435.60,187.94 C433.00,184.84 432.83,184.10 433.17,177.37 C433.58,169.11 435.62,165.94 441.83,163.89 C445.28,162.75 459.93,163.19 466.30,164.62 L 469.10 165.25 L 468.80 158.88 L 468.50 152.50 L 464.50 151.17 C458.41,149.16 443.24,148.51 436.91,150.00 C421.60,153.60 415.04,162.00 415.04,178.00 C415.04,191.04 419.18,198.47 429.30,203.64 C437.52,207.83 451.66,208.63 464.00,205.60 ZM 779.39 205.29 C785.64,203.32 791.68,197.86 794.65,191.50 C796.48,187.58 796.98,184.78 796.98,178.50 C796.99,174.10 796.54,168.90 796.00,166.93 C794.60,161.88 788.65,155.37 782.64,152.29 C777.93,149.88 776.45,149.65 765.00,149.58 C751.44,149.49 747.10,150.45 740.81,154.89 C729.52,162.86 727.86,184.95 737.59,197.71 C744.42,206.66 763.85,210.18 779.39,205.29 ZM 526.58 203.75 C535.99,198.91 541.69,187.38 540.63,175.32 C539.62,163.83 534.86,156.23 526.11,152.14 C521.00,149.76 519.38,149.52 508.00,149.51 C497.05,149.50 494.88,149.79 490.50,151.80 C479.72,156.77 474.99,164.65 475.07,177.50 C475.15,192.57 481.50,201.69 495.00,206.12 C496.38,206.57 502.90,206.81 509.50,206.65 C520.15,206.40 522.07,206.07 526.58,203.75 ZM 925.50 204.45 L 929.50 202.50 L 929.78 188.25 L 930.05 174.00 L 915.53 174.00 L 901.00 174.00 L 901.00 178.88 C901.00,184.31 901.88,184.96 909.25,184.99 C912.95,185.00 913.00,185.06 913.00,188.94 C913.00,191.11 912.50,193.19 911.88,193.58 C911.26,193.96 907.77,194.31 904.13,194.35 C895.41,194.47 891.51,192.42 888.80,186.28 C885.19,178.12 887.53,168.34 894.00,164.55 C897.03,162.77 898.97,162.53 908.50,162.72 C914.55,162.83 921.08,163.06 923.00,163.22 L 926.50 163.50 L 926.80 157.86 L 927.09 152.22 L 921.80 150.87 C918.88,150.13 911.34,149.52 905.00,149.51 C881.85,149.49 871.82,156.88 870.29,175.06 C869.01,190.36 875.06,200.68 888.10,205.43 C894.73,207.84 919.91,207.18 925.50,204.45 ZM 590.88 204.44 C598.00,202.33 603.38,197.27 606.05,190.17 C607.80,185.53 608.12,182.92 607.79,175.83 C607.45,168.36 606.98,166.51 604.41,162.35 C601.18,157.11 596.77,153.65 591.12,151.90 C589.13,151.28 578.84,150.55 568.25,150.27 L 549.00 149.76 L 549.00 177.88 L 549.00 206.00 L 567.32 206.00 C580.99,206.00 586.97,205.60 590.88,204.44 ZM 665.80 199.75 L 666.10 194.00 L 650.05 194.00 L 634.00 194.00 L 634.00 188.37 L 634.00 182.75 L 646.75 183.12 L 659.50 183.50 L 659.80 177.75 C660.15,171.13 661.94,171.82 644.75,172.00 L 634.00 172.11 L 634.00 167.58 L 634.00 163.05 L 649.25 162.78 L 664.50 162.50 L 664.80 156.25 L 665.10 150.00 L 641.05 150.00 L 617.00 150.00 L 617.00 178.02 L 617.00 206.04 L 641.25 205.77 L 665.50 205.50 L 665.80 199.75 ZM 693.78 195.28 L 694.07 185.06 L 706.78 184.78 L 719.50 184.50 L 719.80 178.75 L 720.10 173.00 L 707.05 173.00 L 694.00 173.00 L 694.00 168.03 L 694.00 163.05 L 709.25 162.78 L 724.50 162.50 L 724.50 156.50 L 724.50 150.50 L 700.75 150.23 L 677.00 149.96 L 677.00 178.02 L 677.00 206.08 L 685.25 205.79 L 693.50 205.50 L 693.78 195.28 ZM 822.79 196.75 L 823.08 188.00 L 828.45 188.00 L 833.82 188.00 L 840.16 196.96 L 846.50 205.92 L 855.19 205.96 C859.97,205.98 864.13,205.60 864.42,205.12 C864.72,204.64 861.83,200.14 857.99,195.13 L 851.02 186.02 L 855.50 181.89 C865.41,172.76 863.68,157.93 852.09,152.66 C848.03,150.81 845.16,150.52 827.39,150.18 L 807.28 149.80 L 806.65 156.65 C805.86,165.20 805.87,202.50 806.66,204.56 C807.13,205.77 808.78,206.02 814.87,205.79 L 822.50 205.50 L 822.79 196.75 ZM 988.80 199.78 L 989.10 194.05 L 973.80 193.78 L 958.50 193.50 L 958.20 188.78 L 957.89 184.06 L 970.18 183.78 L 982.48 183.50 L 983.81 180.71 C984.60,179.07 984.88,176.71 984.49,174.96 L 983.84 172.00 L 970.92 172.00 L 958.00 172.00 L 958.00 167.53 L 958.00 163.05 L 973.25 162.78 L 988.50 162.50 L 988.50 156.50 L 988.50 150.50 L 964.75 150.23 L 941.00 149.96 L 941.00 178.00 L 941.00 206.04 L 964.75 205.77 L 988.50 205.50 L 988.80 199.78 ZM 126.47 114.90 C128.41,113.19 130.00,111.23 130.00,110.53 C130.00,109.84 128.31,108.10 126.25,106.66 C124.19,105.22 121.22,102.44 119.66,100.47 L 116.82 96.89 L 114.05 101.19 C112.53,103.56 110.09,106.59 108.64,107.92 C107.19,109.26 106.00,110.92 106.00,111.61 C106.00,112.60 118.89,117.62 122.22,117.93 C122.61,117.97 124.52,116.60 126.47,114.90 ZM 312.06 115.55 C321.81,112.25 322.14,111.78 317.88,107.25 C315.94,105.19 313.59,102.26 312.66,100.75 C311.72,99.24 310.62,98.00 310.22,98.00 C309.81,98.00 306.49,100.86 302.84,104.36 L 296.19 110.72 L 299.83 114.36 C301.83,116.36 303.77,118.00 304.14,118.00 C304.51,118.00 308.07,116.90 312.06,115.55 ZM 258.00 102.50 C259.38,101.02 265.33,95.74 271.24,90.77 L 281.97 81.73 L 277.34 77.61 C272.57,73.37 270.01,71.56 269.64,72.16 C269.52,72.35 267.71,75.15 265.61,78.39 C261.15,85.27 251.52,103.42 250.49,106.90 L 249.77 109.30 L 252.64 107.25 C254.21,106.12 256.62,103.98 258.00,102.50 ZM 176.45 105.75 C174.23,98.48 160.67,73.47 158.50,72.64 C157.86,72.39 154.79,74.36 151.68,77.01 L 146.03 81.83 L 155.27 90.20 C176.07,109.06 177.86,110.37 176.45,105.75 ZM 218.05 85.78 C222.97,75.93 226.47,71.00 231.83,66.42 L 235.82 63.00 L 229.49 56.92 C225.38,52.97 221.86,48.33 219.44,43.67 C213.84,32.89 214.18,32.98 210.21,41.18 C207.66,46.45 204.69,50.41 199.27,55.76 L 191.83 63.10 L 197.23 68.30 C201.43,72.34 210.00,84.52 210.00,86.43 C210.00,87.30 213.09,94.00 213.49,94.00 C213.74,94.00 215.79,90.30 218.05,85.78 ZM 758.54 194.27 C752.29,192.68 748.82,186.86 748.87,178.02 C748.92,166.27 753.01,162.00 764.20,162.00 C775.70,162.01 780.58,167.55 779.81,179.71 C779.45,185.23 779.00,186.41 776.00,189.50 C771.49,194.16 765.03,195.92 758.54,194.27 ZM 501.50 193.59 C491.74,189.25 489.05,174.28 496.56,166.08 C499.80,162.55 499.95,162.50 507.82,162.50 C516.72,162.50 519.11,163.75 521.64,169.72 C523.43,173.95 523.38,183.17 521.54,187.56 C518.99,193.66 508.66,196.77 501.50,193.59 ZM 565.75 193.44 C565.34,193.01 565.00,185.99 565.00,177.83 L 565.00 163.00 L 572.75 163.00 C578.12,163.00 581.57,163.54 584.00,164.75 C593.26,169.38 593.35,186.05 584.14,191.37 C580.64,193.39 567.18,194.91 565.75,193.44 ZM 823.67 175.33 C823.30,174.97 823.00,172.09 823.00,168.94 C823.00,162.34 823.41,162.00 831.52,162.00 C837.20,162.00 841.97,163.35 843.21,165.31 C844.69,167.64 843.97,171.68 841.69,173.83 C839.73,175.66 838.20,176.00 831.85,176.00 C827.72,176.00 824.03,175.70 823.67,175.33 Z" fill="rgb(251,251,251)"/>
</g>
</svg>